<?xml version="1.0" standalone="no"?>
<!DOCTYPE svg PUBLIC "-//W3C//DTD SVG 20010904//EN"
 "http://www.w3.org/TR/2001/REC-SVG-20010904/DTD/svg10.dtd">
<svg version="1.0" xmlns="http://www.w3.org/2000/svg"
 width="512.000000pt" height="512.000000pt" viewBox="0 0 512.000000 512.000000"
 preserveAspectRatio="xMidYMid meet">

<g transform="translate(0.000000,512.000000) scale(0.100000,-0.100000)"
fill="#000000" stroke="none">
<path d="M1803 4945 c-29 -8 -76 -26 -105 -41 -60 -31 -157 -119 -183 -168
l-18 -34 -61 34 c-193 106 -409 78 -568 -74 -62 -59 -123 -165 -134 -231 l-6
-36 -91 0 c-82 0 -99 -4 -159 -32 -93 -44 -151 -100 -196 -191 -35 -72 -37
-81 -37 -171 0 -87 3 -102 32 -163 17 -37 52 -89 77 -116 l46 -49 0 -77 c0
-64 -3 -76 -16 -76 -77 0 -189 -88 -212 -166 -7 -23 -12 -92 -12 -153 0 -105
1 -113 25 -136 20 -21 34 -25 82 -25 l59 0 73 -1027 c40 -566 76 -1059 79
-1098 4 -54 10 -74 28 -92 l23 -23 456 0 455 0 0 -216 c0 -141 4 -231 12 -258
16 -55 99 -138 154 -154 64 -19 1452 -17 1479 2 11 8 40 55 65 105 24 50 47
91 50 91 3 0 26 -41 50 -91 25 -50 54 -97 65 -105 27 -19 1415 -21 1479 -2 55
16 138 99 154 154 9 30 12 181 12 554 0 373 -3 524 -12 554 -16 55 -99 138
-154 154 -30 9 -198 12 -633 12 l-591 0 0 29 c0 36 77 1237 85 1339 l7 72 64
0 c56 0 68 4 89 25 24 23 25 31 25 136 0 61 -5 130 -12 153 -13 45 -105 146
-132 146 -13 0 -16 12 -16 58 0 46 7 71 37 131 35 68 38 81 38 155 0 73 -3 87
-34 144 -37 68 -84 111 -154 142 -44 20 -44 20 -51 79 -9 80 -63 187 -122 241
-25 23 -75 56 -112 73 -61 29 -76 32 -162 32 -86 0 -101 -3 -162 -32 -37 -17
-89 -52 -116 -77 l-48 -45 -54 40 c-30 23 -72 50 -93 61 -47 24 -178 58 -222
58 -29 0 -33 4 -39 34 -4 19 -22 66 -41 104 -98 195 -334 303 -542 247z m252
-176 c102 -48 170 -146 182 -261 4 -40 13 -69 27 -85 20 -23 28 -25 127 -27
100 -1 110 -3 181 -39 71 -35 89 -50 179 -156 51 -59 121 -35 148 51 15 47 95
120 149 136 91 28 167 8 238 -63 62 -62 80 -115 69 -209 -6 -61 -5 -67 19 -91
17 -17 36 -25 61 -25 105 0 180 -91 161 -194 -4 -19 -22 -54 -41 -76 -34 -41
-35 -45 -35 -126 l0 -84 -1480 0 -1480 0 0 116 c0 129 11 106 -93 202 -49 46
-71 106 -65 181 12 163 172 262 328 202 112 -43 145 -21 152 104 6 95 33 161
93 220 65 66 125 90 225 90 106 0 160 -24 242 -107 64 -65 92 -72 131 -35 14
12 32 46 42 76 32 104 102 178 205 215 63 23 170 16 235 -15z m1600 -1434 c21
-20 25 -34 25 -80 l0 -55 -1680 0 -1680 0 0 55 c0 46 4 60 25 80 l24 25 1631
0 1631 0 24 -25z m-2695 -1335 l0 -1040 -163 0 -163 0 -72 1023 c-40 562 -73
1030 -72 1040 0 16 18 17 235 17 l235 0 0 -1040z m640 310 c0 -656 -2 -730
-16 -730 -27 0 -119 -101 -132 -146 -8 -27 -12 -117 -12 -258 l0 -216 -160 0
-160 0 0 1040 0 1040 240 0 240 0 0 -730z m640 10 l0 -720 -240 0 -240 0 0
720 0 720 240 0 240 0 0 -720z m640 0 l0 -720 -240 0 -240 0 0 720 0 720 240
0 240 0 0 -720z m615 653 c-8 -100 -85 -1302 -85 -1340 0 -31 -2 -33 -38 -33
-54 0 -72 -17 -122 -119 -24 -50 -47 -91 -50 -91 -3 0 -27 43 -53 96 -38 77
-54 98 -77 107 l-30 11 0 718 0 718 231 0 230 0 -6 -67z m-428 -1685 c64 -125
83 -155 106 -162 59 -21 76 -3 160 162 l78 152 670 0 670 0 24 -25 25 -24 0
-511 0 -511 -25 -24 -24 -25 -670 0 -670 0 -78 153 c-64 124 -83 154 -105 161
-60 21 -77 3 -161 -162 l-78 -152 -670 0 -670 0 -24 25 -25 24 0 511 0 511 25
24 24 25 670 0 670 0 78 -152z"/>
<path d="M1226 4297 c-56 -56 -24 -124 64 -138 96 -15 145 -69 145 -159 0 -90
-49 -144 -145 -159 -88 -14 -120 -82 -64 -138 24 -24 30 -25 85 -19 110 11
197 70 250 168 31 58 34 70 34 148 0 78 -3 90 -34 148 -54 100 -139 157 -250
169 -54 5 -61 4 -85 -20z"/>
<path d="M1943 4134 c-24 -24 -25 -30 -19 -85 11 -110 70 -197 168 -250 58
-31 70 -34 148 -34 78 0 90 3 148 34 98 53 157 140 168 250 6 55 5 61 -19 85
-56 56 -124 24 -138 -64 -15 -96 -69 -145 -159 -145 -90 0 -144 49 -159 145
-14 88 -82 120 -138 64z"/>
<path d="M1785 1255 l-25 -24 0 -351 0 -351 25 -24 24 -25 511 0 511 0 24 25
25 24 0 351 0 351 -25 24 -24 25 -511 0 -511 0 -24 -25z m935 -375 l0 -240
-400 0 -400 0 0 240 0 240 400 0 400 0 0 -240z"/>
<path d="M3545 1255 l-25 -24 0 -351 0 -351 25 -24 24 -25 511 0 511 0 24 25
25 24 0 351 0 351 -25 24 -24 25 -511 0 -511 0 -24 -25z m935 -375 l0 -240
-400 0 -400 0 0 240 0 240 400 0 400 0 0 -240z"/>
</g>
</svg>
