<?xml version="1.0" standalone="no"?>
<!DOCTYPE svg PUBLIC "-//W3C//DTD SVG 20010904//EN"
 "http://www.w3.org/TR/2001/REC-SVG-20010904/DTD/svg10.dtd">
<svg version="1.0" xmlns="http://www.w3.org/2000/svg"
 width="512.000000pt" height="512.000000pt" viewBox="0 0 512.000000 512.000000"
 preserveAspectRatio="xMidYMid meet">

<g transform="translate(0.000000,512.000000) scale(0.100000,-0.100000)"
fill="#000000" stroke="none">
<path d="M4707 4699 c-99 -23 -196 -103 -240 -197 -21 -46 -22 -59 -25 -469
l-3 -423 -59 88 c-220 328 -529 537 -924 625 l-101 22 -1040 0 c-963 0 -1047
-1 -1130 -18 -253 -51 -457 -145 -652 -302 -209 -168 -379 -416 -461 -675 -53
-168 -66 -256 -66 -450 0 -194 18 -306 75 -469 166 -481 567 -832 1074 -943
108 -24 495 -37 585 -20 158 30 247 90 388 264 102 126 129 148 182 148 52 0
80 -22 180 -146 127 -156 192 -207 320 -250 79 -27 501 -27 633 -1 401 81 756
325 960 660 l37 62 -2 -440 -3 -440 -28 -57 c-33 -68 -99 -129 -165 -154 -42
-16 -98 -19 -502 -24 -439 -5 -457 -6 -502 -27 -66 -30 -133 -96 -165 -162
-24 -49 -28 -68 -28 -146 0 -76 4 -98 26 -145 46 -96 123 -159 227 -185 55
-14 124 -16 520 -13 454 4 458 4 553 30 396 107 682 425 739 823 8 58 10 514
8 1635 l-3 1555 -22 47 c-44 95 -130 167 -230 193 -63 17 -99 17 -156 4z m152
-216 c14 -11 34 -35 43 -54 17 -31 18 -81 18 -606 l0 -573 -140 0 -140 0 2
584 c3 573 3 585 24 613 46 62 134 79 193 36z m-1419 -360 c243 -61 423 -158
591 -320 98 -95 158 -169 220 -273 35 -60 95 -196 114 -257 l6 -23 -148 1
-148 0 -42 87 c-109 225 -324 409 -571 486 -120 38 -236 48 -504 44 -233 -3
-237 -3 -262 -27 -14 -13 -28 -36 -31 -52 -9 -38 19 -94 53 -108 16 -6 145
-12 307 -14 318 -4 342 -9 490 -82 188 -93 322 -250 392 -460 24 -71 27 -95
27 -220 0 -132 -2 -145 -32 -234 -71 -206 -200 -354 -387 -447 -119 -58 -198
-78 -316 -79 -87 0 -101 3 -154 30 -53 27 -78 52 -215 218 -172 209 -227 256
-349 297 l-71 25 0 260 c0 289 -1 294 -66 321 -29 12 -39 12 -68 0 -65 -27
-66 -32 -66 -322 l0 -261 -70 -23 c-120 -39 -177 -87 -350 -297 -137 -166
-162 -191 -215 -218 -53 -27 -67 -30 -154 -30 -118 1 -197 21 -316 79 -187 93
-316 241 -387 447 -31 89 -33 101 -32 234 0 131 2 146 32 232 71 207 212 367
402 457 136 64 165 69 475 73 162 2 291 8 307 14 34 14 62 70 53 108 -3 16
-17 39 -31 52 -25 24 -29 24 -262 27 -130 2 -278 -1 -329 -7 -334 -39 -619
-246 -763 -554 -65 -140 -84 -229 -84 -402 -1 -126 3 -164 22 -235 95 -349
366 -617 708 -702 130 -31 306 -31 389 2 127 49 155 74 325 280 195 237 233
264 380 264 147 0 184 -25 379 -263 171 -208 199 -232 326 -281 51 -20 77 -24
180 -24 253 1 478 96 662 280 68 68 164 200 178 244 6 19 16 20 161 20 l154 0
-20 -50 c-127 -323 -420 -601 -750 -713 -141 -48 -214 -58 -436 -64 -310 -8
-339 4 -513 214 -55 68 -118 134 -140 149 -110 72 -264 70 -368 -5 -21 -15
-84 -83 -139 -149 -110 -133 -174 -184 -258 -203 -76 -17 -437 -6 -536 16
-489 109 -848 468 -963 960 -16 71 -21 124 -21 255 0 183 13 269 66 420 128
361 415 643 780 765 194 65 175 64 1293 61 990 -2 1012 -2 1095 -23z m1480
-1253 l0 -180 -400 0 -401 0 8 53 c4 28 8 109 8 180 l-1 127 393 0 393 0 0
-180z m-2 -992 c-4 -601 -4 -614 -26 -686 -56 -182 -168 -340 -312 -439 -127
-86 -261 -130 -427 -140 l-103 -6 0 141 0 142 43 0 c267 1 486 168 536 408 7
35 11 245 11 622 l0 570 140 0 141 0 -3 -612z m-1068 -1128 l0 -140 -247 0
c-216 0 -252 2 -283 18 -98 49 -108 187 -17 242 30 18 52 20 290 20 l257 0 0
-140z"/>
<path d="M2280 3863 c-28 -10 -59 -46 -65 -75 -21 -94 97 -157 166 -89 33 33
38 75 14 120 -19 38 -75 59 -115 44z"/>
</g>
</svg>
