<?xml version="1.0" standalone="no"?>
<!DOCTYPE svg PUBLIC "-//W3C//DTD SVG 20010904//EN"
 "http://www.w3.org/TR/2001/REC-SVG-20010904/DTD/svg10.dtd">
<svg version="1.0" xmlns="http://www.w3.org/2000/svg"
 width="1600.000000pt" height="1600.000000pt" viewBox="0 0 1600.000000 1600.000000"
 preserveAspectRatio="xMidYMid meet">

<g transform="translate(0.000000,1600.000000) scale(0.100000,-0.100000)"
fill="#000000" stroke="none">
<path d="M7675 15034 c-624 -29 -1304 -156 -1894 -353 -377 -127 -638 -236
-996 -420 -1786 -916 -3109 -2572 -3605 -4516 -103 -403 -164 -772 -202 -1230
-16 -195 -16 -835 0 -1030 80 -956 303 -1772 707 -2590 495 -1004 1205 -1859
2100 -2530 1521 -1140 3418 -1611 5305 -1319 1747 271 3341 1205 4440 2602
1328 1689 1811 3863 1325 5958 -470 2022 -1842 3757 -3713 4693 -784 393
-1605 626 -2503 711 -207 20 -754 33 -964 24z m845 -334 c1603 -132 3039 -784
4179 -1895 1168 -1139 1868 -2642 2003 -4300 16 -203 16 -811 0 -1010 -56
-680 -196 -1302 -429 -1909 -783 -2039 -2519 -3575 -4641 -4105 -552 -138
-1030 -195 -1632 -195 -511 0 -873 35 -1350 130 -1811 364 -3430 1504 -4396
3095 -545 899 -861 1882 -956 2974 -16 191 -16 843 0 1025 95 1057 370 1957
860 2815 1005 1762 2747 2976 4737 3304 264 43 447 63 810 85 108 7 687 -3
815 -14z"/>
</g>
</svg>
