<?xml version="1.0" standalone="no"?>
<!DOCTYPE svg PUBLIC "-//W3C//DTD SVG 20010904//EN"
 "http://www.w3.org/TR/2001/REC-SVG-20010904/DTD/svg10.dtd">
<svg version="1.0" xmlns="http://www.w3.org/2000/svg"
 width="512.000000pt" height="512.000000pt" viewBox="0 0 512.000000 512.000000"
 preserveAspectRatio="xMidYMid meet">

<g transform="translate(0.000000,512.000000) scale(0.100000,-0.100000)"
fill="#000000" stroke="none">
<path d="M1224 4161 c-75 -34 -110 -104 -101 -202 10 -110 87 -218 192 -269
45 -22 66 -25 201 -28 l150 -4 31 -81 30 -82 -123 -247 c-68 -137 -128 -248
-132 -248 -5 0 -35 9 -67 20 -115 40 -219 53 -380 47 -124 -4 -166 -9 -240
-31 -196 -58 -355 -155 -493 -301 -300 -319 -373 -765 -193 -1179 65 -148 234
-345 380 -441 91 -60 219 -116 329 -143 91 -23 119 -19 146 20 40 56 3 97
-114 127 -554 139 -847 763 -600 1279 50 104 86 157 168 244 116 123 281 216
454 258 147 35 386 23 509 -27 l38 -15 -21 -41 c-11 -23 -22 -43 -23 -45 -2
-2 -34 6 -72 18 -105 34 -290 39 -408 11 -543 -130 -799 -737 -514 -1218 44
-74 159 -195 233 -246 421 -286 983 -134 1201 324 33 70 75 210 75 251 0 15 8
18 50 18 48 0 50 -1 50 -27 0 -57 -42 -200 -84 -288 -53 -109 -94 -168 -183
-258 -118 -120 -249 -194 -423 -240 -55 -15 -99 -33 -107 -43 -28 -38 -10 -98
34 -115 39 -15 199 31 328 95 259 128 455 357 541 630 l17 55 42 -29 c23 -16
61 -35 84 -42 l41 -13 0 -77 0 -78 -45 0 c-83 0 -123 -73 -70 -125 24 -25 27
-25 188 -25 151 0 166 2 191 21 34 27 36 77 3 107 -17 16 -36 22 -70 22 l-47
0 0 75 c0 63 3 77 18 82 150 51 240 151 265 297 13 75 0 147 -38 223 -24 46
-24 48 -6 68 207 232 853 945 860 949 5 3 16 -13 24 -36 8 -24 26 -73 40 -110
l26 -67 -66 -36 c-551 -303 -726 -1008 -379 -1529 143 -215 368 -375 621 -443
90 -24 117 -27 270 -27 142 1 183 4 247 22 324 89 561 280 704 567 266 536 43
1178 -499 1435 -144 69 -241 92 -409 97 -114 4 -169 2 -245 -12 -54 -10 -100
-17 -102 -17 -3 0 -61 153 -131 339 l-126 338 210 3 c192 2 212 1 224 -15 47
-67 82 -89 175 -108 22 -4 28 -11 25 -28 -3 -20 -10 -23 -83 -28 -90 -7 -106
-12 -153 -46 -122 -90 -81 -302 66 -343 91 -25 252 -6 344 41 72 37 152 122
189 202 32 67 34 79 33 172 0 116 -20 179 -82 260 -98 130 -299 200 -417 146
-39 -17 -95 -72 -95 -92 0 -5 -118 -9 -285 -9 l-286 0 -24 -25 c-14 -13 -25
-33 -25 -44 0 -16 43 -143 75 -223 7 -17 -33 -18 -758 -18 l-764 0 -22 56
c-11 31 -21 60 -21 66 0 5 21 34 47 64 l47 54 180 1 c206 0 239 7 274 59 34
50 26 105 -25 179 -40 58 -115 112 -183 131 -20 6 -215 10 -465 10 -397 0
-433 -2 -471 -19z m919 -145 c18 -7 43 -25 56 -40 l24 -26 -161 0 c-193 0
-218 -7 -291 -86 l-50 -55 -164 3 c-160 3 -164 4 -206 31 -27 18 -50 44 -62
70 -19 42 -25 98 -12 110 3 4 192 7 420 7 328 0 420 -3 446 -14z m2072 -200
c183 -85 221 -318 73 -450 -59 -54 -123 -76 -215 -76 -80 0 -103 11 -103 50 0
40 23 50 111 50 59 0 80 5 116 25 60 36 86 90 81 166 -7 91 -59 147 -153 164
-22 4 -46 11 -52 17 -16 13 -17 50 -1 66 19 19 89 14 143 -12z m-759 -431 c5
-20 -3 -35 -42 -79 -27 -29 -238 -263 -468 -518 l-420 -465 -49 19 c-28 11
-77 22 -111 25 l-61 6 -190 509 c-104 280 -191 513 -193 518 -2 6 277 10 762
10 l766 0 6 -25z m-1472 -581 c97 -259 176 -476 176 -481 0 -10 -42 -43 -54
-43 -2 0 -14 30 -26 68 -68 207 -236 428 -413 542 l-54 35 91 182 c50 100 94
179 98 175 4 -4 86 -219 182 -478z m2287 92 c114 -29 185 -60 280 -121 188
-121 331 -319 390 -540 32 -118 33 -337 1 -455 -76 -280 -276 -511 -540 -620
-227 -95 -501 -91 -725 9 -135 61 -285 184 -373 308 -193 269 -222 637 -73
937 52 105 147 228 228 293 64 51 178 123 196 123 6 0 17 -19 26 -43 l15 -44
-59 -34 c-127 -73 -271 -234 -333 -374 -65 -149 -84 -365 -44 -521 98 -385
455 -648 840 -620 123 9 202 30 316 86 196 95 345 270 414 487 22 68 23 72 6
98 -25 38 -57 50 -92 34 -22 -11 -35 -33 -64 -109 -101 -267 -319 -430 -595
-447 -119 -7 -214 14 -333 72 -155 77 -280 221 -334 385 -29 89 -36 272 -14
361 25 100 88 217 155 290 55 61 148 134 179 141 9 2 39 -67 92 -205 l78 -208
-33 -49 c-61 -90 -52 -200 22 -272 113 -110 285 -82 349 56 38 82 29 161 -27
229 -36 44 -95 77 -137 77 -29 0 -31 3 -110 213 -50 134 -76 216 -70 222 5 6
69 10 151 9 134 0 147 -2 224 -31 199 -76 334 -215 405 -416 32 -90 46 -107
93 -107 64 0 83 52 54 141 -95 290 -324 496 -618 555 -82 16 -258 15 -346 -2
-28 -5 -31 -3 -46 40 l-16 46 36 9 c62 16 82 18 212 20 104 1 143 -3 220 -23z
m-2618 -183 c88 -70 183 -190 236 -299 42 -84 91 -249 91 -305 0 -28 -2 -29
-48 -29 l-49 0 -12 68 c-36 201 -157 397 -322 518 l-48 35 21 44 c25 52 26 52
131 -32z m-432 -59 c38 -8 69 -20 69 -25 0 -5 -45 -99 -100 -209 l-100 -200
-40 0 c-53 0 -110 -30 -149 -77 -56 -68 -65 -147 -27 -229 49 -106 176 -153
282 -105 37 17 114 93 114 113 0 4 104 8 230 8 127 0 230 -3 230 -7 0 -5 -7
-36 -15 -70 -44 -188 -171 -349 -346 -438 -109 -56 -169 -69 -304 -69 -103 0
-132 4 -201 27 -200 66 -360 226 -429 428 -25 74 -29 98 -28 204 0 102 4 132
26 200 77 235 265 403 512 458 49 11 211 6 276 -9z m312 -176 c105 -106 170
-226 192 -356 l7 -42 -229 0 -228 0 -23 40 -22 40 100 200 c55 110 105 200
111 200 6 0 47 -37 92 -82z m923 -293 c50 -29 93 -95 101 -153 10 -78 -38
-171 -108 -208 l-29 -15 0 113 c0 101 -2 114 -22 135 -26 28 -67 30 -99 4 -22
-18 -24 -28 -29 -136 l-5 -117 -41 30 c-105 76 -113 233 -17 324 65 62 167 71
249 23z m-1350 -123 c52 -34 25 -122 -38 -122 -56 0 -86 60 -52 108 15 22 66
30 90 14z m2998 -14 c53 -76 -52 -151 -107 -77 -33 45 -1 99 58 99 24 0 39 -7
49 -22z"/>
</g>
</svg>
