<?xml version="1.0" standalone="no"?>
<!DOCTYPE svg PUBLIC "-//W3C//DTD SVG 20010904//EN"
 "http://www.w3.org/TR/2001/REC-SVG-20010904/DTD/svg10.dtd">
<svg version="1.0" xmlns="http://www.w3.org/2000/svg"
 width="512.000000pt" height="512.000000pt" viewBox="0 0 512.000000 512.000000"
 preserveAspectRatio="xMidYMid meet">

<g transform="translate(0.000000,512.000000) scale(0.100000,-0.100000)"
fill="#000000" stroke="none">
<path d="M379 5092 l-34 -30 -3 -211 -3 -210 -50 -16 c-58 -20 -153 -87 -190
-136 -128 -168 -128 -390 0 -558 14 -19 52 -54 85 -78 164 -121 403 -109 551
28 102 95 146 193 147 329 0 135 -44 234 -146 328 -44 40 -155 102 -183 102
-10 0 -13 49 -13 209 0 203 -1 211 -23 236 -14 17 -36 28 -63 32 -36 5 -46 1
-75 -25z m142 -652 c50 -14 123 -81 144 -132 25 -61 23 -144 -4 -201 -89 -183
-350 -182 -437 2 -73 154 42 340 211 341 28 0 66 -5 86 -10z"/>
<path d="M378 3531 c-85 -76 9 -209 110 -157 61 32 72 108 23 157 -40 40 -89
40 -133 0z"/>
<path d="M2215 3491 c-105 -28 -196 -105 -241 -204 -24 -53 -28 -74 -28 -147
0 -105 29 -176 101 -248 199 -199 529 -107 599 168 20 80 13 152 -23 232 -31
69 -111 149 -180 179 -52 23 -178 34 -228 20z m149 -205 c70 -29 110 -118 86
-190 -37 -112 -177 -148 -259 -65 -124 124 11 323 173 255z"/>
<path d="M379 3142 l-34 -30 0 -524 0 -523 24 -74 c59 -180 207 -321 390 -375
70 -20 218 -21 296 -1 189 50 350 215 400 410 12 46 15 122 15 343 l0 284 -29
29 c-34 34 -82 39 -121 12 -37 -25 -252 -207 -273 -231 -23 -26 -25 -84 -3
-116 8 -13 31 -29 49 -35 43 -14 73 -4 133 45 l44 36 0 -150 c0 -129 -3 -159
-21 -208 -30 -80 -92 -151 -169 -193 -58 -32 -74 -36 -155 -39 -75 -3 -100 0
-150 19 -82 30 -172 120 -206 204 l-24 60 -5 517 c-5 509 -5 518 -26 538 -12
12 -39 24 -61 27 -35 5 -45 1 -74 -25z"/>
<path d="M1910 2770 c-59 -12 -88 -28 -135 -71 -177 -163 -58 -459 185 -459
230 0 353 265 203 439 -61 72 -167 110 -253 91z m103 -222 c37 -44 6 -108 -53
-108 -35 0 -70 31 -70 61 0 69 77 99 123 47z"/>
<path d="M2685 2171 c-463 -54 -917 -308 -1359 -762 -171 -174 -198 -220 -198
-323 1 -88 27 -138 136 -256 389 -424 870 -722 1301 -806 127 -25 376 -25 510
0 273 51 596 200 853 393 41 30 75 53 76 51 2 -1 17 -30 35 -63 144 -274 463
-421 876 -403 177 8 194 25 202 203 10 200 -26 404 -96 550 -73 153 -177 260
-306 315 l-50 21 58 24 c144 58 260 191 327 373 49 134 64 237 65 429 0 159
-2 174 -21 200 -38 51 -64 57 -234 57 -310 0 -519 -69 -682 -222 -68 -64 -168
-200 -168 -228 0 -8 -3 -14 -6 -14 -3 0 -42 27 -87 59 -277 201 -587 342 -847
385 -117 20 -292 27 -385 17z m365 -217 c322 -61 660 -247 991 -546 100 -91
284 -281 301 -312 10 -17 -217 -255 -355 -374 -422 -361 -828 -536 -1207 -519
-98 5 -266 30 -279 43 -2 2 15 44 38 94 55 119 105 271 132 406 27 137 37 406
19 555 -20 180 -94 430 -170 579 -11 22 -18 45 -15 49 5 8 138 35 225 45 62 7
233 -3 320 -20z m1868 -39 c5 -79 -15 -233 -40 -315 -41 -133 -121 -246 -207
-289 -22 -11 -73 -30 -115 -41 l-75 -21 -153 156 c-84 87 -155 164 -156 172
-2 8 11 45 29 81 42 86 142 188 226 231 112 56 279 91 423 87 l65 -1 3 -60z
m-2565 -152 c53 -115 98 -253 124 -378 28 -140 25 -474 -5 -612 -27 -124 -69
-253 -116 -354 -55 -120 -45 -116 -161 -58 -261 132 -498 311 -742 562 -121
124 -138 151 -123 193 15 37 297 315 420 413 57 45 148 112 201 147 99 66 319
184 342 184 8 0 34 -44 60 -97z m2216 -852 c219 -68 330 -257 348 -590 l6
-124 -124 6 c-142 7 -264 34 -355 77 -112 54 -215 166 -259 282 l-17 47 136
136 c75 75 144 147 152 161 20 29 34 30 113 5z"/>
<path d="M3244 1430 c-107 -34 -243 -137 -335 -253 -67 -84 -52 -135 78 -262
246 -242 508 -248 754 -17 159 149 172 191 91 289 -184 220 -390 305 -588 243z
m242 -210 c33 -16 84 -52 114 -80 l55 -50 -57 -53 c-154 -144 -296 -144 -446
-1 l-57 54 55 51 c75 68 159 109 225 109 37 0 68 -8 111 -30z"/>
<path d="M1914 1376 c-33 -33 -34 -35 -34 -121 0 -82 1 -88 29 -116 39 -38 97
-40 138 -5 26 23 28 30 31 115 l4 91 -35 35 c-47 47 -87 47 -133 1z"/>
</g>
</svg>
