<?xml version="1.0" standalone="no"?>
<!DOCTYPE svg PUBLIC "-//W3C//DTD SVG 20010904//EN"
 "http://www.w3.org/TR/2001/REC-SVG-20010904/DTD/svg10.dtd">
<svg version="1.0" xmlns="http://www.w3.org/2000/svg"
 width="512.000000pt" height="512.000000pt" viewBox="0 0 512.000000 512.000000"
 preserveAspectRatio="xMidYMid meet">

<g transform="translate(0.000000,512.000000) scale(0.100000,-0.100000)"
fill="#000000" stroke="none">
<path d="M3715 5114 c-122 -18 -172 -28 -260 -55 -165 -51 -335 -146 -453
-253 -96 -86 -83 -84 -152 -27 -103 86 -218 103 -326 48 -63 -32 -470 -441
-505 -507 -20 -37 -24 -60 -24 -130 0 -100 13 -130 86 -205 l49 -50 -469 -469
-469 -469 -48 40 c-83 69 -128 88 -214 88 -121 0 -140 -13 -392 -262 -235
-233 -265 -273 -275 -368 -9 -84 18 -157 82 -225 l55 -56 -59 -67 c-165 -185
-263 -381 -317 -632 -23 -110 -23 -370 0 -480 60 -281 182 -505 377 -690 384
-367 980 -449 1463 -202 107 54 228 140 291 206 21 22 46 41 54 41 8 0 40 -24
71 -54 68 -65 141 -92 227 -83 95 10 125 32 375 285 226 228 237 240 253 296
32 110 7 194 -88 301 l-54 60 469 469 469 469 32 -30 c81 -77 105 -95 151
-108 65 -20 131 -19 192 2 42 14 81 48 282 247 129 127 243 249 255 271 17 32
22 57 22 125 0 98 -11 124 -86 212 -27 31 -49 59 -49 62 0 3 29 37 64 76 153
166 265 397 307 630 20 112 18 375 -5 480 -85 393 -330 714 -682 889 -166 83
-320 120 -524 125 -80 3 -158 2 -175 0z m360 -158 c339 -74 618 -285 774 -584
170 -327 174 -697 11 -1028 -51 -105 -140 -234 -203 -293 l-36 -34 -65 57
c-104 92 -194 115 -303 77 l-52 -17 -530 530 -530 531 17 30 c12 22 17 54 17
115 0 103 -16 139 -101 222 l-58 58 34 36 c138 145 408 278 635 314 83 12 306
5 390 -14z m-1362 -250 c18 -7 96 -78 173 -157 117 -119 143 -151 148 -181 15
-83 3 -100 -236 -332 -300 -293 -280 -291 -511 -58 l-157 158 0 51 c0 40 6 58
29 89 35 48 408 417 436 433 28 15 80 14 118 -3z m865 -1149 l523 -523 -141
-137 c-77 -75 -144 -137 -148 -137 -4 0 -241 234 -527 520 l-520 520 140 140
c77 77 142 140 145 140 3 0 240 -235 528 -523z m-1273 203 c72 -77 182 -105
291 -75 l66 18 526 -526 525 -526 -17 -59 c-34 -121 -12 -206 75 -297 l58 -61
-468 -468 -469 -469 -65 56 c-98 83 -186 104 -297 71 l-53 -16 -529 529 -530
530 17 58 c33 111 7 204 -86 308 l-51 57 20 25 c10 13 219 224 463 468 l444
444 25 -17 c14 -10 39 -33 55 -50z m2090 -740 c26 -10 285 -262 318 -310 10
-15 17 -43 17 -74 l0 -50 -217 -219 c-120 -120 -230 -225 -245 -233 -34 -18
-80 -18 -121 0 -18 7 -96 78 -174 157 -214 218 -216 205 85 501 119 117 228
218 242 225 31 15 61 16 95 3z m-3409 -40 c15 -6 92 -76 171 -156 216 -219
218 -204 -73 -502 -239 -246 -255 -257 -337 -233 -34 10 -69 40 -183 154 -226
227 -227 216 59 506 117 117 226 219 242 227 36 16 84 18 121 4z m1334 -1720
c-27 -30 -91 -97 -142 -147 l-93 -93 -525 525 -525 525 145 145 145 145 521
-522 522 -522 -48 -56z m-1741 780 c105 -100 192 -122 303 -80 l53 20 529
-529 529 -529 -18 -57 c-21 -68 -17 -163 10 -215 9 -19 42 -60 72 -91 l54 -56
-72 -67 c-157 -148 -355 -244 -579 -281 -365 -59 -742 65 -997 328 -95 98
-149 175 -208 300 -173 361 -148 778 67 1115 33 50 168 211 178 211 3 0 38
-31 79 -69z m2098 -750 c35 -13 307 -291 323 -330 7 -18 10 -45 5 -67 -6 -33
-39 -71 -234 -267 -218 -218 -230 -228 -272 -233 -26 -3 -56 0 -74 8 -17 8
-96 82 -177 165 l-148 151 0 52 0 52 139 147 c170 180 311 318 331 325 25 9
77 8 107 -3z"/>
<path d="M2232 3229 c-233 -46 -392 -297 -341 -541 26 -126 53 -160 349 -457
289 -290 323 -316 435 -346 218 -56 441 48 538 252 31 65 32 74 32 189 0 119
0 121 -39 200 -36 74 -57 97 -320 360 -300 300 -323 317 -444 343 -60 13 -147
13 -210 0z m247 -163 c82 -42 574 -538 610 -616 34 -72 35 -172 4 -242 -30
-66 -104 -141 -166 -169 -78 -35 -203 -34 -272 3 -66 35 -573 543 -606 608
-34 64 -34 193 -1 265 56 122 168 188 307 181 52 -2 84 -10 124 -30z"/>
</g>
</svg>
