<?xml version="1.0" standalone="no"?>
<!DOCTYPE svg PUBLIC "-//W3C//DTD SVG 20010904//EN"
 "http://www.w3.org/TR/2001/REC-SVG-20010904/DTD/svg10.dtd">
<svg version="1.0" xmlns="http://www.w3.org/2000/svg"
 width="512.000000pt" height="512.000000pt" viewBox="0 0 512.000000 512.000000"
 preserveAspectRatio="xMidYMid meet">

<g transform="translate(0.000000,512.000000) scale(0.100000,-0.100000)"
fill="#000000" stroke="none">
<path d="M2360 5114 c-272 -26 -590 -102 -781 -187 l-54 -24 35 -6 c19 -3 92
-10 163 -17 450 -39 941 -191 1345 -414 55 -31 103 -56 106 -56 13 0 39 127
44 216 5 117 -12 218 -59 349 l-30 83 -87 16 c-48 9 -118 20 -157 26 -74 11
-448 21 -525 14z"/>
<path d="M3494 4908 c22 -109 28 -187 23 -298 -5 -129 -20 -200 -63 -309 -14
-35 -24 -64 -22 -65 24 -16 200 -156 254 -203 l71 -61 251 251 251 252 -42 36
c-126 106 -278 211 -432 296 -97 54 -268 133 -286 133 -8 0 -9 -11 -5 -32z"/>
<path d="M1081 4589 c-90 -9 -98 -12 -150 -52 -79 -60 -284 -267 -365 -367
-226 -282 -404 -638 -491 -981 -35 -136 -86 -479 -72 -479 2 0 34 41 71 90 80
108 269 306 375 394 271 225 559 383 886 482 44 14 349 85 677 159 604 136
671 154 785 205 65 29 193 109 193 120 0 10 -176 104 -285 153 -299 133 -595
218 -915 262 -139 19 -574 28 -709 14z"/>
<path d="M4223 4007 l-252 -252 41 -45 c41 -45 182 -218 210 -258 l15 -22 84
31 c164 60 344 75 524 44 48 -9 90 -13 93 -11 12 12 -119 279 -202 414 -55 89
-162 235 -227 310 l-35 41 -251 -252z"/>
<path d="M3210 3955 c-73 -75 -221 -164 -372 -224 -101 -39 -201 -64 -773
-191 -275 -61 -549 -125 -610 -142 -366 -105 -680 -292 -955 -568 -177 -177
-315 -373 -422 -596 l-48 -101 20 -97 c57 -276 161 -545 310 -794 62 -104 218
-319 262 -359 l24 -22 1448 1448 1449 1449 -43 38 c-72 66 -234 194 -246 194
-5 0 -25 -16 -44 -35z"/>
<path d="M2307 2092 l-1448 -1448 41 -38 c71 -64 239 -185 344 -247 248 -148
516 -252 793 -309 l98 -21 130 65 c519 259 912 708 1099 1254 31 91 84 306
166 675 67 298 133 587 147 642 56 219 153 411 271 537 24 26 42 53 39 60 -10
24 -219 278 -229 278 -2 0 -655 -652 -1451 -1448z"/>
<path d="M4540 3214 c-47 -9 -130 -35 -130 -40 0 -3 28 -55 61 -117 224 -409
370 -888 410 -1337 6 -69 13 -141 16 -160 l6 -35 22 50 c38 86 102 287 129
408 49 218 59 315 60 572 0 234 -4 292 -40 487 l-16 87 -55 21 c-127 47 -197
62 -318 65 -66 2 -131 1 -145 -1z"/>
<path d="M4133 2956 c-41 -50 -106 -177 -137 -268 -14 -42 -85 -339 -156 -660
-72 -320 -147 -635 -166 -698 -98 -315 -243 -587 -451 -845 -100 -125 -302
-321 -422 -410 -50 -38 -91 -70 -91 -72 0 -5 99 5 233 23 424 59 874 257 1227
540 100 81 307 286 367 364 41 54 42 57 52 170 54 572 -65 1186 -331 1715 -97
192 -89 184 -125 141z"/>
</g>
</svg>
