<?xml version="1.0" standalone="no"?>
<!DOCTYPE svg PUBLIC "-//W3C//DTD SVG 20010904//EN"
 "http://www.w3.org/TR/2001/REC-SVG-20010904/DTD/svg10.dtd">
<svg version="1.0" xmlns="http://www.w3.org/2000/svg"
 width="512.000000pt" height="512.000000pt" viewBox="0 0 512.000000 512.000000"
 preserveAspectRatio="xMidYMid meet">

<g transform="translate(0.000000,512.000000) scale(0.100000,-0.100000)"
fill="#000000" stroke="none">
<path d="M2375 5114 c-503 -52 -924 -222 -1290 -519 -119 -96 -302 -286 -391
-405 -233 -311 -384 -669 -450 -1070 -15 -91 -18 -199 -21 -805 l-3 -700 -45
-86 c-89 -172 -93 -254 -29 -632 61 -361 88 -431 217 -554 105 -100 226 -156
367 -169 l75 -7 23 -48 c27 -57 93 -105 158 -115 31 -4 117 6 291 36 137 23
265 46 285 52 74 21 137 96 153 178 4 24 -28 238 -99 654 -58 340 -107 620
-109 622 -2 2 -35 -2 -73 -9 -59 -11 -69 -15 -67 -32 2 -11 48 -287 102 -613
104 -613 105 -629 64 -650 -10 -5 -131 -29 -270 -52 -242 -42 -252 -43 -278
-26 -14 9 -28 23 -31 30 -3 7 -67 380 -143 827 -143 845 -144 856 -102 878 9
5 130 28 268 52 221 37 256 41 277 29 31 -16 40 -43 61 -180 9 -58 18 -110 20
-116 3 -9 20 -9 69 1 37 6 69 15 73 19 4 3 -5 72 -19 152 -30 167 -50 207
-124 250 -26 15 -66 29 -93 31 -63 5 -550 -79 -599 -104 -54 -29 -99 -92 -112
-161 l-12 -58 -66 -30 c-36 -16 -70 -30 -74 -32 -4 -2 -8 213 -8 477 l0 481
150 0 150 0 0 69 c0 178 39 414 98 596 46 140 163 374 247 490 394 548 1037
852 1688 797 254 -21 455 -76 675 -182 205 -99 343 -197 510 -363 319 -314
507 -712 552 -1166 5 -57 10 -134 10 -172 l0 -69 150 0 150 0 0 -481 c0 -264
-4 -479 -8 -477 -4 2 -38 16 -74 32 l-66 30 -12 58 c-13 69 -58 132 -114 161
-53 28 -566 113 -618 103 -58 -11 -129 -64 -155 -116 -16 -33 -41 -157 -93
-469 -39 -233 -70 -424 -68 -426 5 -3 142 -25 144 -22 1 1 32 182 68 402 37
220 72 414 77 431 19 62 32 62 312 15 138 -24 259 -47 268 -52 42 -22 41 -33
-102 -877 -76 -448 -140 -820 -143 -827 -3 -8 -17 -22 -31 -31 -26 -17 -36
-16 -278 26 -139 23 -260 47 -270 52 -39 20 -38 46 18 379 30 178 52 326 49
329 -5 4 -137 30 -140 26 -1 0 -27 -153 -58 -339 -39 -225 -55 -348 -51 -370
18 -82 81 -154 153 -175 20 -6 148 -29 284 -52 175 -30 261 -40 292 -36 67 10
129 55 157 114 l24 49 75 7 c141 13 262 69 367 169 129 123 156 193 217 554
64 378 60 460 -29 632 l-45 86 -3 695 c-3 470 -8 721 -16 775 -62 414 -215
786 -454 1104 -95 126 -279 315 -407 418 -319 256 -718 430 -1120 488 -109 16
-440 28 -525 19z m391 -155 c665 -64 1264 -428 1630 -990 199 -306 313 -649
348 -1046 l6 -63 -75 0 -74 0 -5 43 c-3 23 -8 71 -11 107 -3 36 -17 120 -31
188 -120 603 -519 1118 -1084 1402 -197 99 -375 157 -605 197 -141 24 -492 24
-625 0 -586 -108 -1064 -418 -1382 -897 -173 -261 -296 -604 -323 -895 -3 -38
-8 -87 -11 -107 l-6 -38 -74 0 -74 0 6 63 c37 414 145 736 353 1055 447 681
1232 1060 2037 981z m-2216 -3301 c22 -116 226 -1334 224 -1337 -2 -2 -31 2
-66 8 -92 16 -195 70 -257 136 -85 90 -104 143 -156 445 -25 146 -45 296 -45
332 0 125 51 240 144 325 55 51 153 107 156 91z m4100 -31 c134 -81 220 -231
220 -386 0 -36 -20 -185 -45 -331 -52 -302 -71 -355 -156 -445 -62 -66 -165
-120 -257 -136 -35 -6 -64 -10 -66 -8 -2 2 48 303 110 669 62 366 113 666 114
668 1 7 46 -11 80 -31z"/>
<path d="M2480 1500 l0 -760 80 0 80 0 0 760 0 760 -80 0 -80 0 0 -760z"/>
<path d="M2147 1933 c-4 -3 -7 -199 -7 -435 l0 -428 75 0 75 0 0 435 0 435
-68 0 c-38 0 -72 -3 -75 -7z"/>
<path d="M2830 1505 l0 -435 75 0 75 0 -2 433 -3 432 -72 3 -73 3 0 -436z"/>
<path d="M1800 1500 l0 -250 75 0 75 0 0 250 0 250 -75 0 -75 0 0 -250z"/>
<path d="M3170 1500 l0 -250 75 0 75 0 0 250 0 250 -75 0 -75 0 0 -250z"/>
<path d="M1070 768 c-30 -6 -56 -11 -58 -13 -1 -1 3 -35 9 -74 l12 -73 31 6
c17 3 50 8 74 12 47 7 46 4 30 90 -13 71 -8 68 -98 52z"/>
<path d="M3956 738 c-4 -24 -9 -57 -12 -74 -6 -30 -4 -31 38 -38 23 -4 57 -9
74 -12 l32 -6 11 64 c6 36 11 69 11 75 0 8 -103 33 -137 33 -6 0 -13 -19 -17
-42z"/>
<path d="M1111 469 c-24 -5 -45 -10 -47 -12 -7 -7 21 -141 29 -140 94 10 128
17 132 24 3 4 1 38 -6 74 -12 73 -13 73 -108 54z"/>
<path d="M3902 413 c-6 -36 -9 -70 -7 -73 3 -4 30 -11 61 -15 32 -4 62 -9 69
-11 8 -3 16 19 24 67 6 39 10 73 8 75 -5 5 -106 24 -127 24 -13 0 -19 -15 -28
-67z"/>
</g>
</svg>
