<?xml version="1.0" standalone="no"?>
<!DOCTYPE svg PUBLIC "-//W3C//DTD SVG 20010904//EN"
 "http://www.w3.org/TR/2001/REC-SVG-20010904/DTD/svg10.dtd">
<svg version="1.0" xmlns="http://www.w3.org/2000/svg"
 width="1024.000000pt" height="1024.000000pt" viewBox="0 0 1024.000000 1024.000000"
 preserveAspectRatio="xMidYMid meet">

<g transform="translate(0.000000,1024.000000) scale(0.100000,-0.100000)"
fill="#000000" stroke="none">
<path d="M4895 9949 c-967 -42 -1909 -382 -2685 -967 -353 -267 -694 -610
-962 -967 -818 -1089 -1134 -2477 -872 -3830 117 -607 368 -1214 717 -1740
187 -282 347 -476 607 -736 397 -398 772 -669 1271 -918 681 -340 1375 -502
2149 -502 773 0 1469 162 2148 501 500 250 877 522 1272 919 312 313 521 581
743 951 87 145 270 517 332 675 228 577 336 1153 336 1785 0 771 -159 1456
-497 2140 -253 511 -550 919 -965 1325 -766 749 -1750 1216 -2820 1339 -117
14 -545 39 -589 34 -8 0 -91 -4 -185 -9z m581 -349 c1580 -126 2973 -1071
3675 -2495 231 -469 370 -942 435 -1475 22 -182 30 -654 15 -847 -76 -955
-428 -1820 -1039 -2552 -189 -227 -489 -511 -747 -707 -102 -78 -339 -234
-475 -311 -505 -290 -1074 -478 -1680 -555 -153 -19 -222 -22 -540 -22 -316 0
-388 3 -536 22 -900 114 -1695 463 -2379 1042 -144 122 -406 386 -527 531
-570 684 -912 1478 -1025 2379 -26 209 -26 812 0 1020 71 559 217 1046 457
1520 706 1390 2091 2323 3635 2449 148 12 583 13 731 1z"/>
</g>
</svg>
