<?xml version="1.0" standalone="no"?>
<!DOCTYPE svg PUBLIC "-//W3C//DTD SVG 20010904//EN"
 "http://www.w3.org/TR/2001/REC-SVG-20010904/DTD/svg10.dtd">
<svg version="1.0" xmlns="http://www.w3.org/2000/svg"
 width="512.000000pt" height="512.000000pt" viewBox="0 0 512.000000 512.000000"
 preserveAspectRatio="xMidYMid meet">

<g transform="translate(0.000000,512.000000) scale(0.100000,-0.100000)"
fill="#000000" stroke="none">
<path d="M1410 5042 c-19 -9 -45 -32 -57 -51 -22 -33 -23 -43 -23 -238 l0
-204 -62 7 c-230 23 -454 -135 -513 -361 -43 -166 5 -337 129 -460 104 -104
232 -153 373 -142 l72 5 3 -213 c3 -212 3 -214 28 -240 50 -54 58 -55 345 -55
l266 0 24 25 c30 29 30 35 4 110 -70 199 60 418 264 444 155 20 290 -55 355
-198 31 -68 35 -182 9 -245 -23 -51 -21 -92 3 -116 19 -19 33 -20 270 -20
l250 0 0 -181 0 -182 -55 7 c-191 22 -393 -90 -481 -268 -93 -190 -58 -403 90
-552 103 -103 219 -148 362 -142 l84 3 0 -200 c0 -223 5 -244 72 -285 30 -18
51 -20 235 -20 l201 0 -5 -77 c-10 -142 38 -265 141 -369 255 -254 674 -158
798 184 16 43 21 82 22 160 l1 102 201 0 c192 0 203 1 235 23 64 42 69 65 69
315 l0 223 -25 24 c-31 32 -69 32 -100 0 -25 -24 -25 -25 -25 -230 l0 -205
-237 0 c-258 0 -280 -4 -297 -53 -8 -20 -5 -40 10 -80 27 -73 25 -186 -4 -251
-34 -75 -84 -129 -154 -166 -58 -32 -70 -35 -153 -35 -107 0 -163 23 -235 95
-93 93 -120 208 -80 344 20 66 21 80 10 101 -21 39 -58 45 -301 45 l-229 0 0
235 c0 253 -4 276 -50 295 -24 10 -39 8 -89 -10 -122 -45 -274 -10 -358 83
-61 68 -88 139 -88 232 0 67 5 89 28 137 71 145 231 222 378 183 111 -31 133
-31 158 0 20 27 21 37 21 271 l0 244 179 0 178 0 -5 -69 c-17 -248 158 -470
406 -513 144 -24 311 30 418 136 97 97 153 252 140 384 l-7 62 181 0 180 0 0
-479 c0 -469 0 -479 21 -505 28 -36 80 -36 108 0 l21 27 0 1404 c0 1555 5
1447 -64 1496 l-31 22 -1206 3 -1206 2 -27 -21 c-36 -28 -36 -80 0 -108 26
-20 39 -21 295 -21 l269 0 0 -248 c0 -247 0 -249 23 -270 29 -27 45 -27 125
-2 80 25 123 25 205 0 79 -24 149 -83 192 -162 28 -49 30 -61 30 -153 0 -89
-3 -106 -27 -150 -78 -148 -250 -219 -405 -166 -77 26 -84 26 -117 0 l-26 -20
0 -250 0 -249 -178 0 -179 0 -1 98 c0 148 -47 258 -150 354 -98 91 -197 129
-332 129 -186 0 -347 -99 -430 -264 -37 -75 -53 -152 -48 -243 l3 -74 -177 0
-178 0 0 229 c0 243 -6 280 -45 301 -21 11 -35 10 -101 -10 -135 -40 -252 -13
-344 80 -72 71 -95 127 -95 235 0 84 2 94 34 153 40 74 84 115 161 151 71 33
179 36 257 7 40 -15 60 -18 80 -10 49 17 53 39 53 297 l0 237 414 0 c403 0
414 1 440 21 36 28 36 80 0 108 -26 21 -37 21 -458 21 -390 0 -434 -2 -466
-18z m3560 -967 l0 -835 -245 0 -246 0 -25 -26 c-29 -28 -29 -45 1 -144 45
-150 -36 -319 -185 -389 -45 -21 -70 -25 -135 -25 -133 0 -233 59 -294 174
-45 85 -52 173 -21 269 27 80 20 114 -26 131 -14 6 -131 10 -260 10 l-234 0 0
179 0 178 68 -5 c218 -15 428 128 492 337 26 84 27 208 1 290 -65 209 -279
355 -493 338 l-68 -6 0 180 0 179 835 0 835 0 0 -835z"/>
<path d="M1286 2715 c-28 -10 -81 -55 -177 -151 l-138 -138 -23 30 c-75 99
-194 167 -323 186 -94 13 -186 -3 -282 -49 -70 -34 -169 -130 -205 -199 -104
-195 -64 -434 97 -582 l62 -57 -142 -145 c-209 -212 -209 -222 4 -434 l139
-138 -67 -67 c-37 -36 -79 -89 -93 -117 -148 -278 3 -619 309 -699 169 -44
359 14 476 147 l51 58 146 -144 c211 -210 217 -210 430 -1 l145 142 57 -62
c120 -130 291 -181 467 -140 236 56 398 296 362 537 -19 122 -101 260 -191
321 l-24 17 141 142 c221 224 221 223 -46 491 -153 152 -192 187 -215 187 -43
0 -63 -16 -89 -74 -73 -158 -260 -236 -422 -176 -82 31 -164 113 -195 195 -29
79 -25 188 10 260 32 66 99 131 166 162 58 26 74 46 74 89 0 21 -35 62 -172
201 -95 96 -186 183 -203 193 -44 26 -85 31 -129 15z m173 -269 l123 -124 -64
-63 c-99 -97 -148 -211 -148 -344 0 -270 212 -484 480 -485 136 0 248 48 349
149 l63 64 127 -127 126 -126 -174 -174 c-149 -149 -174 -179 -174 -205 0 -40
15 -57 79 -87 69 -33 147 -117 170 -186 21 -61 23 -154 6 -215 -41 -141 -194
-243 -349 -230 -112 9 -226 87 -270 184 -26 58 -52 83 -87 83 -27 0 -55 -24
-206 -175 l-175 -175 -175 175 c-179 178 -194 188 -245 169 -9 -4 -28 -30 -42
-58 -40 -80 -86 -129 -155 -167 -58 -32 -69 -34 -153 -34 -80 0 -97 3 -148 29
-68 35 -130 98 -160 164 -17 37 -22 66 -22 137 0 83 2 95 34 153 40 73 80 111
160 152 32 16 61 36 65 45 19 51 9 66 -169 245 l-175 175 175 175 c151 151
175 179 175 206 0 35 -22 57 -93 93 -58 29 -121 97 -150 159 -17 37 -22 66
-22 137 0 79 4 96 28 143 82 156 252 225 415 168 68 -23 153 -102 190 -176 30
-62 66 -86 104 -71 12 5 97 84 188 175 91 91 167 166 170 166 3 0 61 -56 129
-124z"/>
</g>
</svg>
