<?xml version="1.0" standalone="no"?>
<!DOCTYPE svg PUBLIC "-//W3C//DTD SVG 20010904//EN"
 "http://www.w3.org/TR/2001/REC-SVG-20010904/DTD/svg10.dtd">
<svg version="1.0" xmlns="http://www.w3.org/2000/svg"
 width="512.000000pt" height="512.000000pt" viewBox="0 0 512.000000 512.000000"
 preserveAspectRatio="xMidYMid meet">

<g transform="translate(0.000000,512.000000) scale(0.100000,-0.100000)"
fill="#000000" stroke="none">
<path d="M1067 4938 c-14 -13 -152 -169 -307 -347 -259 -297 -282 -326 -278
-355 3 -17 273 -639 601 -1382 l597 -1351 0 -265 c0 -193 4 -289 15 -353 63
-358 352 -647 710 -710 416 -72 824 157 976 549 48 125 59 218 59 514 l0 265
597 1351 c328 743 598 1365 601 1382 4 29 -19 58 -278 355 -155 178 -293 334
-307 347 -53 48 -55 46 -423 -280 -188 -167 -345 -303 -349 -303 -5 0 -123
101 -262 225 -447 397 -426 380 -459 380 -25 0 -86 -50 -370 -302 -188 -167
-345 -303 -349 -303 -5 0 -123 101 -262 225 -446 396 -426 380 -459 380 -16 0
-40 -10 -53 -22z m1812 -448 c191 -169 311 -282 311 -293 0 -19 -366 -2521
-376 -2569 l-6 -28 -248 0 -248 0 -6 27 c-15 73 -376 2559 -374 2573 3 18 618
571 630 567 4 -1 147 -126 317 -277z m-1425 -13 l314 -278 12 -87 c7 -48 92
-631 190 -1297 l176 -1210 -164 -3 c-91 -1 -167 -1 -169 2 -13 13 -1153 2611
-1151 2622 5 20 459 535 469 532 5 -2 150 -128 323 -281z m2781 17 c127 -146
229 -270 228 -277 -3 -14 -1150 -2607 -1156 -2613 -2 -3 -78 -3 -169 -2 l-164
3 190 1297 191 1297 315 280 c173 154 320 280 325 280 6 0 114 -119 240 -265z
m-955 -3134 l0 -80 -720 0 -720 0 0 80 0 80 720 0 720 0 0 -80z m-3 -347 c-10
-197 -75 -342 -211 -479 -90 -90 -175 -143 -294 -182 -67 -22 -94 -26 -212
-26 -118 0 -145 4 -212 26 -119 39 -204 92 -294 182 -136 137 -201 282 -211
479 l-6 107 723 0 723 0 -6 -107z"/>
</g>
</svg>
