<?xml version="1.0" standalone="no"?>
<!DOCTYPE svg PUBLIC "-//W3C//DTD SVG 20010904//EN"
 "http://www.w3.org/TR/2001/REC-SVG-20010904/DTD/svg10.dtd">
<svg version="1.0" xmlns="http://www.w3.org/2000/svg"
 width="512.000000pt" height="512.000000pt" viewBox="0 0 512.000000 512.000000"
 preserveAspectRatio="xMidYMid meet">

<g transform="translate(0.000000,512.000000) scale(0.100000,-0.100000)"
fill="#000000" stroke="none">
<path d="M1356 4325 c-95 -20 -158 -41 -249 -86 -106 -53 -158 -90 -246 -173
-86 -84 -147 -165 -197 -266 -43 -88 -604 -1656 -628 -1755 -48 -204 -48 -392
0 -603 24 -101 60 -130 123 -97 39 20 43 46 20 139 -42 174 -34 416 20 591 41
132 574 1612 598 1659 107 213 306 373 541 432 l95 24 1127 0 1127 0 95 -24
c257 -65 466 -246 566 -489 17 -40 101 -270 187 -512 86 -242 164 -448 172
-457 38 -42 123 -8 123 48 0 23 -285 836 -346 988 -57 142 -198 318 -330 412
-84 60 -201 117 -309 151 l-90 28 -1165 2 c-955 1 -1177 -1 -1234 -12z"/>
<path d="M1261 3972 c-61 -30 -76 -61 -79 -168 l-4 -94 -86 0 c-99 0 -140 -17
-167 -69 -21 -41 -21 -276 -1 -326 24 -56 66 -75 169 -75 l87 0 0 -82 c0 -98
18 -142 70 -173 31 -18 52 -20 177 -20 127 0 144 2 170 21 47 34 63 79 63 172
l0 82 85 0 c99 0 136 14 165 63 17 28 20 51 20 170 0 150 -7 178 -56 216 -23
18 -41 21 -120 21 l-94 0 0 89 c0 75 -3 93 -23 122 -38 57 -75 69 -217 69 -99
0 -132 -4 -159 -18z m249 -236 c0 -98 2 -106 26 -135 l26 -31 109 0 109 0 0
-89 0 -89 -106 -4 c-105 -3 -106 -3 -135 -36 -28 -31 -29 -35 -29 -137 l0
-105 -90 0 -90 0 0 105 c0 157 -19 175 -181 175 l-89 0 0 90 0 90 108 0 c150
1 162 13 162 169 l0 101 90 0 90 0 0 -104z"/>
<path d="M3632 3850 c-32 -20 -62 -71 -62 -106 0 -31 30 -80 61 -98 62 -36
143 -14 173 48 20 42 20 57 2 101 -17 40 -68 75 -111 75 -16 0 -45 -9 -63 -20z"/>
<path d="M2495 3851 c-131 -34 -225 -154 -225 -286 0 -112 70 -220 172 -266
108 -48 241 -25 323 56 146 147 99 402 -89 480 -44 19 -140 27 -181 16z m144
-168 c45 -35 63 -67 63 -118 0 -141 -180 -194 -259 -76 -83 124 77 282 196
194z"/>
<path d="M3373 3585 c-39 -17 -73 -68 -73 -110 0 -43 35 -94 75 -111 44 -18
59 -18 101 2 88 42 86 177 -2 219 -39 18 -59 18 -101 0z"/>
<path d="M3933 3593 c-12 -2 -36 -20 -53 -39 -53 -60 -35 -155 36 -189 40 -19
56 -19 99 -1 40 17 75 68 75 111 0 43 -35 94 -75 111 -35 14 -42 15 -82 7z"/>
<path d="M3616 3290 c-41 -37 -53 -84 -32 -134 17 -41 68 -76 111 -76 43 0 94
35 111 75 18 44 18 59 -2 101 -33 70 -128 87 -188 34z"/>
<path d="M1931 3014 c-30 -8 -76 -26 -102 -41 -59 -31 -148 -123 -178 -181
-62 -121 -67 -292 -11 -322 30 -16 64 -12 88 10 18 17 22 32 22 84 0 102 23
161 88 226 42 41 72 62 111 75 148 49 319 -33 366 -176 47 -140 -7 -282 -132
-356 -61 -35 -161 -43 -245 -17 -54 16 -63 16 -86 3 -15 -8 -31 -27 -37 -42
-26 -76 79 -130 246 -124 88 2 103 6 171 39 92 46 167 122 211 215 30 64 32
74 32 183 0 111 -1 118 -34 185 -96 195 -307 294 -510 239z"/>
<path d="M3050 3014 c-117 -32 -221 -118 -275 -228 -111 -227 -24 -481 203
-594 64 -31 85 -36 162 -40 160 -8 299 57 383 179 125 182 110 397 -38 557
-112 121 -277 168 -435 126z m207 -149 c64 -19 136 -82 170 -149 37 -71 39
-179 4 -250 -52 -106 -148 -166 -266 -166 -83 0 -142 23 -198 78 -136 131
-118 346 37 450 80 53 159 65 253 37z"/>
<path d="M4840 2507 c-13 -7 -29 -25 -34 -40 -11 -30 -12 -24 82 -297 28 -80
58 -187 66 -239 48 -286 -17 -585 -181 -833 -79 -120 -181 -173 -318 -166 -95
6 -159 32 -220 92 -23 23 -166 214 -317 426 -154 215 -299 407 -327 433 -62
58 -133 92 -221 106 -89 15 -1532 15 -1620 0 -88 -14 -177 -60 -237 -122 -28
-29 -171 -221 -318 -427 -147 -206 -287 -394 -311 -417 -64 -61 -123 -86 -215
-91 -134 -8 -229 39 -317 157 -48 64 -56 71 -87 71 -43 0 -75 -29 -75 -68 0
-37 82 -155 140 -201 53 -43 142 -87 200 -100 108 -25 249 -7 350 44 89 45
152 120 430 510 149 209 293 401 320 426 81 77 42 74 945 74 l800 0 46 -23
c25 -12 62 -39 81 -60 20 -20 158 -208 308 -417 150 -210 295 -403 325 -431
101 -98 224 -140 375 -131 204 12 337 117 464 367 104 203 141 362 141 595 0
130 -5 180 -24 265 -27 125 -144 458 -169 481 -25 25 -54 30 -82 16z"/>
</g>
</svg>
