<?xml version="1.0" standalone="no"?>
<!DOCTYPE svg PUBLIC "-//W3C//DTD SVG 20010904//EN"
 "http://www.w3.org/TR/2001/REC-SVG-20010904/DTD/svg10.dtd">
<svg version="1.0" xmlns="http://www.w3.org/2000/svg"
 width="512.000000pt" height="512.000000pt" viewBox="0 0 512.000000 512.000000"
 preserveAspectRatio="xMidYMid meet">

<g transform="translate(0.000000,512.000000) scale(0.100000,-0.100000)"
fill="#000000" stroke="none">
<path d="M2115 5108 c-246 -25 -544 -112 -780 -227 -286 -141 -509 -311 -702
-535 -351 -408 -555 -935 -581 -1500 -30 -650 132 -1249 483 -1776 382 -576
996 -950 1725 -1051 142 -20 516 -17 665 5 577 84 1095 346 1385 701 163 200
275 428 316 642 12 65 15 123 12 223 -5 149 -29 241 -90 350 -42 75 -127 179
-176 215 -23 17 -42 35 -42 41 0 9 193 659 336 1132 25 80 26 82 57 82 47 1
109 33 144 74 20 25 38 65 52 119 34 130 27 184 -31 244 l-30 31 53 64 c58 70
121 192 144 283 22 86 20 243 -5 331 -11 40 -44 127 -74 195 -52 118 -67 164
-81 253 -9 54 -44 86 -94 86 -33 0 -45 -6 -73 -37 -73 -83 -128 -131 -224
-200 -222 -158 -319 -320 -331 -553 -4 -89 1 -153 19 -229 2 -9 -9 -17 -27
-21 -47 -10 -92 -37 -113 -68 -24 -33 -72 -193 -72 -237 1 -59 61 -150 111
-167 8 -3 -29 -175 -120 -563 -73 -308 -137 -577 -142 -598 -12 -45 -5 -46
-164 19 -297 121 -400 281 -325 504 28 83 58 133 148 249 40 51 77 103 82 115
10 27 -11 80 -35 90 -54 20 -88 -7 -205 -165 -212 -286 -220 -555 -22 -748
119 -116 275 -191 572 -276 352 -101 466 -181 560 -388 78 -174 69 -406 -26
-635 -221 -535 -789 -910 -1534 -1013 -142 -20 -498 -17 -640 4 -828 127
-1474 624 -1804 1389 -124 286 -192 541 -226 847 -14 122 -13 440 0 567 47
432 212 856 459 1179 68 90 255 279 346 350 288 225 618 370 990 436 184 33
496 33 666 1 270 -51 493 -166 675 -349 128 -130 216 -270 270 -433 25 -77 28
-98 28 -235 1 -130 -2 -160 -22 -224 -26 -82 -23 -113 13 -137 33 -21 74 -14
97 17 57 76 85 346 54 514 -47 249 -208 512 -420 684 -193 157 -371 244 -598
295 -199 44 -432 56 -653 34z m2671 -290 c9 -29 37 -96 61 -148 25 -52 51
-120 59 -150 18 -70 18 -200 -1 -270 -32 -122 -122 -249 -206 -293 -34 -17
-36 -17 -174 20 l-139 38 -30 57 c-25 49 -30 73 -34 155 -5 112 10 188 57 280
41 82 99 144 210 222 53 38 114 85 136 105 22 19 41 35 42 36 1 0 9 -24 19
-52z m-296 -988 c151 -40 281 -79 289 -86 13 -12 12 -23 -3 -88 -9 -41 -24
-80 -31 -86 -11 -9 -81 6 -302 65 -158 42 -294 83 -302 90 -12 11 -11 24 4 82
19 70 40 107 59 100 6 -2 135 -37 286 -77z m-65 -345 c66 -18 119 -36 118 -41
-1 -8 -322 -1082 -344 -1149 l-9 -30 -110 35 c-60 19 -110 40 -110 47 0 12
267 1148 275 1171 5 14 0 15 180 -33z"/>
<path d="M2117 4629 c-176 -41 -326 -206 -357 -390 -55 -328 261 -618 583
-534 219 57 359 238 358 465 0 216 -143 400 -354 456 -58 15 -172 17 -230 3z
m227 -159 c75 -28 139 -88 176 -164 69 -139 27 -309 -97 -401 -212 -156 -516
-7 -517 255 -1 98 26 164 93 231 95 95 223 124 345 79z"/>
<path d="M1111 3824 c-302 -81 -449 -415 -303 -688 35 -67 126 -157 188 -189
91 -46 158 -60 261 -55 85 5 102 9 178 47 204 101 307 326 250 546 -65 247
-331 405 -574 339z m245 -163 c61 -27 128 -91 162 -156 23 -43 27 -62 27 -140
0 -109 -23 -164 -97 -237 -66 -64 -139 -91 -238 -86 -125 6 -225 72 -280 183
-34 70 -35 197 -2 270 74 162 267 237 428 166z"/>
<path d="M1018 2535 c-89 -22 -157 -62 -225 -130 -233 -233 -167 -616 132
-761 72 -34 89 -39 176 -42 146 -6 247 28 342 116 115 107 163 225 155 384 -4
77 -10 104 -35 158 -43 91 -84 143 -153 194 -108 80 -268 113 -392 81z m247
-169 c63 -29 125 -89 157 -154 19 -39 23 -63 23 -142 0 -86 -3 -100 -29 -148
-34 -60 -85 -111 -148 -144 -36 -19 -58 -23 -138 -23 -79 0 -103 4 -142 23
-141 69 -215 230 -174 377 55 196 268 295 451 211z"/>
<path d="M3213 1669 c-180 -57 -315 -224 -330 -411 -26 -305 239 -555 542
-511 384 55 541 529 266 804 -125 124 -312 171 -478 118z m282 -159 c63 -30
124 -92 156 -155 20 -42 24 -65 24 -140 0 -79 -4 -97 -28 -142 -36 -69 -88
-120 -156 -152 -76 -35 -191 -37 -267 -3 -64 29 -136 101 -166 167 -33 71 -32
201 1 265 48 91 104 142 191 174 65 23 181 17 245 -14z"/>
<path d="M1971 1574 c-27 -34 -26 -57 2 -88 17 -20 37 -28 88 -35 123 -17 214
-84 264 -194 24 -51 27 -68 23 -140 -4 -97 -28 -154 -91 -218 -122 -122 -317
-126 -450 -10 -20 18 -51 62 -69 99 -56 114 -43 242 36 345 46 60 23 137 -40
137 -38 0 -57 -14 -97 -72 -196 -285 -30 -676 313 -738 211 -38 416 74 514
280 26 55 31 80 34 161 4 102 -10 174 -50 253 -27 53 -122 152 -176 183 -62
37 -155 63 -222 63 -51 0 -61 -3 -79 -26z"/>
</g>
</svg>
