<?xml version="1.0" standalone="no"?>
<!DOCTYPE svg PUBLIC "-//W3C//DTD SVG 20010904//EN"
 "http://www.w3.org/TR/2001/REC-SVG-20010904/DTD/svg10.dtd">
<svg version="1.0" xmlns="http://www.w3.org/2000/svg"
 width="512.000000pt" height="512.000000pt" viewBox="0 0 512.000000 512.000000"
 preserveAspectRatio="xMidYMid meet">

<g transform="translate(0.000000,512.000000) scale(0.100000,-0.100000)"
fill="#000000" stroke="none">
<path d="M683 4945 c-176 -48 -317 -195 -353 -370 -7 -35 -10 -137 -8 -277 3
-214 4 -225 28 -273 31 -63 94 -126 148 -150 23 -11 42 -24 42 -29 0 -6 -21
-78 -45 -161 -131 -432 -233 -938 -284 -1400 -34 -306 -44 -489 -45 -795 -1
-261 1 -301 17 -347 10 -29 21 -53 25 -53 3 0 36 14 72 31 l67 31 -14 46 c-12
39 -14 98 -9 337 8 420 36 735 102 1135 56 345 164 798 258 1090 l24 75 877 3
c832 2 876 1 871 -15 -3 -10 -16 -54 -30 -98 -33 -108 -100 -357 -130 -483
-17 -73 -21 -104 -13 -107 7 -2 42 -10 79 -18 l67 -15 22 97 c25 113 118 454
153 561 l24 75 129 6 c112 5 134 9 179 32 75 38 107 69 145 139 l34 63 3 177
4 177 -26 25 -25 26 -217 0 -216 0 7 48 c8 59 59 155 98 188 16 14 53 37 81
52 69 36 206 39 277 6 63 -29 126 -88 154 -143 20 -40 123 -404 185 -651 12
-47 25 -101 31 -121 l9 -37 68 15 c37 8 71 19 76 23 18 17 -182 757 -228 845
-63 120 -190 216 -324 244 -37 8 -397 11 -1195 10 -950 0 -1151 -3 -1194 -14z
m1882 -195 c-18 -27 -44 -76 -57 -107 -22 -55 -23 -69 -23 -313 0 -224 2 -259
18 -287 9 -18 17 -35 17 -38 0 -3 -436 -4 -968 -3 l-969 3 -37 29 c-64 48 -68
70 -64 315 3 212 4 217 30 267 15 28 38 64 52 81 27 32 113 82 160 94 17 4
446 7 953 8 l922 1 -34 -50z m393 -539 c-3 -118 -12 -141 -72 -185 -39 -29
-133 -29 -172 0 -60 44 -69 67 -72 185 l-4 109 162 0 162 0 -4 -109z"/>
<path d="M4343 4680 c-35 -17 -77 -49 -95 -70 -32 -37 -646 -1036 -686 -1115
-17 -34 -30 -45 -79 -64 -258 -104 -518 -306 -695 -541 -62 -83 -110 -167
-229 -402 l-149 -298 69 -35 70 -35 131 259 c189 373 282 506 464 658 107 90
189 144 305 203 66 33 86 39 92 28 5 -7 9 -17 9 -22 0 -4 -46 -54 -103 -110
-179 -175 -320 -369 -456 -623 -109 -205 -234 -453 -230 -457 19 -17 133 -66
139 -59 5 4 69 125 143 269 208 403 299 537 498 737 l108 108 28 -17 c15 -10
30 -19 31 -20 3 -2 -118 -232 -484 -920 -30 -56 -54 -105 -54 -110 0 -10 111
-74 127 -74 6 0 136 236 289 525 313 588 301 573 284 344 -18 -229 -75 -411
-206 -651 -40 -76 -74 -141 -74 -145 0 -9 113 -73 129 -73 5 0 42 60 82 132
167 305 231 541 232 853 l0 150 36 41 c33 38 637 1019 692 1124 20 37 24 60
24 130 0 99 -23 158 -86 221 -61 61 -112 82 -209 87 -80 3 -89 2 -147 -28z
m215 -150 c51 -31 74 -76 69 -135 -3 -45 -33 -99 -327 -580 -177 -291 -332
-541 -344 -553 -69 -78 -192 -67 -247 20 -15 25 -19 45 -16 83 3 45 33 99 327
580 178 292 330 539 339 549 48 57 138 73 199 36z"/>
<path d="M2485 2943 c-664 -56 -1154 -188 -1382 -373 -136 -110 -163 -206
-127 -449 19 -127 47 -219 155 -498 l83 -212 65 25 c36 14 69 28 74 33 4 4
-35 117 -87 252 -94 245 -114 304 -99 297 4 -2 44 -22 88 -44 262 -135 667
-228 1205 -276 189 -17 809 -16 1000 0 537 48 942 140 1205 276 44 22 84 42
88 44 16 7 -8 -60 -159 -451 -146 -378 -187 -472 -234 -543 l-21 -32 58 -46
c32 -25 61 -46 65 -46 10 0 61 76 92 138 32 63 284 705 332 846 42 125 63 231
70 366 6 93 4 112 -16 164 -44 116 -187 224 -413 314 -137 54 -334 109 -346
96 -5 -5 -16 -39 -24 -76 l-15 -68 42 -10 c235 -58 466 -160 552 -244 85 -82
84 -130 -1 -213 -36 -35 -86 -68 -156 -102 l-102 -50 -27 42 c-56 88 -148 150
-312 211 -53 20 -101 36 -107 36 -13 0 -54 -141 -44 -150 4 -4 33 -15 63 -24
129 -41 290 -141 264 -165 -14 -14 -244 -68 -404 -96 -687 -117 -1565 -94
-2170 56 -69 17 -128 33 -133 36 -14 8 13 42 60 74 100 69 304 136 542 179 63
11 116 22 118 23 2 2 -2 38 -8 80 -11 74 -12 76 -38 72 -307 -50 -537 -119
-672 -201 -60 -36 -149 -126 -149 -149 0 -28 -21 -24 -121 26 -67 34 -120 69
-155 103 -84 82 -84 130 -1 211 163 158 644 298 1185 345 70 6 142 13 160 16
l33 5 -3 77 c-3 84 -1 82 -73 75z"/>
<path d="M950 1273 c-131 -22 -264 -100 -345 -203 l-44 -54 -88 -1 c-76 0 -96
-4 -145 -28 -107 -53 -162 -143 -163 -267 0 -62 5 -85 28 -132 32 -64 80 -111
146 -142 35 -16 67 -21 134 -21 l88 -1 42 -52 c70 -86 149 -141 266 -186 56
-21 56 -21 1291 -24 870 -2 1255 1 1302 8 123 21 252 98 333 200 l44 54 88 1
c76 0 96 4 145 28 107 53 163 144 163 267 0 123 -56 214 -163 267 -49 24 -69
28 -145 28 l-88 1 -44 54 c-66 84 -158 147 -274 188 -42 15 -166 17 -1296 18
-687 1 -1261 0 -1275 -3z m254 -191 c91 -42 149 -100 194 -190 35 -72 37 -81
37 -172 0 -91 -2 -100 -37 -172 -45 -91 -103 -147 -196 -191 -61 -29 -76 -32
-162 -32 -86 0 -101 3 -160 31 -36 18 -80 45 -99 61 l-34 29 132 12 c113 10
141 16 184 39 183 99 180 355 -4 449 -39 19 -76 27 -179 36 l-130 11 21 23
c27 28 125 81 175 94 72 18 187 5 258 -28z m2318 1 c93 -44 151 -100 196 -191
35 -72 37 -81 37 -172 0 -91 -2 -100 -37 -172 -45 -91 -103 -147 -196 -191
l-67 -32 -1008 -3 c-979 -2 -1008 -2 -998 16 5 10 17 25 26 32 23 19 80 126
101 190 26 76 26 244 0 320 -21 64 -78 171 -101 190 -9 7 -21 22 -26 32 -10
18 19 18 998 16 l1008 -3 67 -32z m-2797 -247 l260 -25 27 -30 c36 -41 36 -81
0 -122 l-27 -31 -273 -25 c-266 -24 -273 -24 -309 -6 -55 27 -86 77 -80 132 6
52 32 90 78 113 42 22 13 23 324 -6z m3291 -1 c14 -9 34 -30 44 -48 50 -81 -7
-190 -106 -204 l-39 -5 0 142 0 142 38 -5 c21 -3 49 -13 63 -22z"/>
</g>
</svg>
