<?xml version="1.0" standalone="no"?>
<!DOCTYPE svg PUBLIC "-//W3C//DTD SVG 20010904//EN"
 "http://www.w3.org/TR/2001/REC-SVG-20010904/DTD/svg10.dtd">
<svg version="1.0" xmlns="http://www.w3.org/2000/svg"
 width="512.000000pt" height="512.000000pt" viewBox="0 0 512.000000 512.000000"
 preserveAspectRatio="xMidYMid meet">

<g transform="translate(0.000000,512.000000) scale(0.100000,-0.100000)"
fill="#000000" stroke="none">
<path d="M2002 4307 c-61 -23 -103 -69 -298 -330 -108 -144 -205 -270 -216
-279 -16 -15 -39 -18 -114 -18 l-94 0 0 136 c0 170 -9 204 -75 269 -68 69 -94
75 -325 75 -231 0 -257 -6 -325 -75 -66 -65 -75 -99 -75 -269 l0 -136 -56 0
c-31 0 -75 -5 -98 -12 -55 -16 -138 -99 -154 -154 -17 -60 -17 -2488 0 -2548
16 -55 99 -138 154 -154 32 -9 542 -12 2236 -12 2475 0 2252 -8 2331 80 24 26
49 66 55 88 17 57 17 2487 0 2544 -6 22 -31 62 -55 88 -74 82 -56 80 -689 80
-511 0 -553 1 -572 18 -11 9 -108 134 -215 278 -107 143 -211 274 -232 291
-20 17 -53 35 -74 42 -55 16 -1063 14 -1109 -2z m1086 -164 c11 -10 108 -135
215 -279 107 -143 211 -274 232 -291 20 -17 53 -35 74 -42 27 -8 206 -11 590
-11 l552 0 24 -25 25 -24 0 -416 0 -415 -572 0 -573 0 -25 83 c-107 359 -397
645 -763 751 -582 169 -1204 -171 -1377 -751 l-25 -83 -572 0 -573 0 0 415 0
416 25 24 24 25 552 0 c384 0 563 3 590 11 21 7 54 25 74 42 21 17 125 148
232 291 107 144 204 269 215 279 19 16 59 17 528 17 469 0 509 -1 528 -17z
m-1993 -168 c24 -23 25 -29 25 -160 l0 -135 -240 0 -240 0 0 135 c0 131 1 137
25 160 24 25 26 25 215 25 189 0 191 0 215 -25z m1700 -645 c181 -49 304 -120
440 -255 136 -136 206 -257 257 -445 32 -118 32 -336 0 -458 -46 -177 -128
-320 -256 -448 -128 -128 -271 -210 -448 -256 -122 -32 -340 -32 -458 0 -188
51 -309 121 -445 257 -180 180 -268 378 -282 630 -14 274 83 522 281 721 144
143 310 232 505 269 106 20 300 13 406 -15z m-1355 -927 c0 -215 75 -461 193
-632 174 -253 455 -431 757 -476 244 -38 469 1 692 117 365 191 597 574 598
991 l0 77 560 0 560 0 0 -735 0 -736 -25 -24 -24 -25 -2191 0 -2191 0 -24 25
-25 24 0 736 0 735 560 0 560 0 0 -77z"/>
<path d="M2420 3106 c-216 -46 -404 -189 -499 -378 -61 -123 -76 -190 -75
-338 1 -143 22 -226 89 -347 50 -90 178 -218 268 -268 336 -186 746 -86 958
233 149 226 156 523 18 760 -49 82 -180 211 -262 257 -148 82 -343 113 -497
81z m246 -157 c96 -17 213 -79 286 -152 112 -112 163 -235 163 -397 0 -160
-51 -285 -161 -394 -109 -110 -234 -161 -394 -161 -162 0 -285 51 -397 163
-237 237 -207 646 63 838 139 99 279 132 440 103z"/>
</g>
</svg>
