<?xml version="1.0" standalone="no"?>
<!DOCTYPE svg PUBLIC "-//W3C//DTD SVG 20010904//EN"
 "http://www.w3.org/TR/2001/REC-SVG-20010904/DTD/svg10.dtd">
<svg version="1.0" xmlns="http://www.w3.org/2000/svg"
 width="512.000000pt" height="512.000000pt" viewBox="0 0 512.000000 512.000000"
 preserveAspectRatio="xMidYMid meet">

<g transform="translate(0.000000,512.000000) scale(0.100000,-0.100000)"
fill="#000000" stroke="none">
<path d="M1555 4594 c-44 -8 -143 -32 -220 -53 -332 -91 -517 -121 -759 -121
-138 0 -155 -2 -191 -23 -51 -28 -85 -92 -85 -159 l0 -48 -62 0 c-35 0 -80 -5
-101 -11 -47 -13 -106 -63 -123 -106 -12 -27 -14 -304 -14 -1588 0 -1377 2
-1560 15 -1592 21 -50 42 -72 90 -94 38 -18 91 -19 1040 -19 1116 0 1026 6
1066 -72 31 -61 102 -126 177 -161 62 -30 75 -32 172 -32 97 0 110 2 172 32
75 35 146 100 177 161 40 78 -50 72 1066 72 961 0 1002 1 1042 19 26 12 52 35
70 62 l28 43 3 753 2 754 -24 24 c-32 32 -70 32 -101 0 l-25 -24 0 -729 c0
-553 -3 -731 -12 -740 -9 -9 -246 -12 -1004 -12 -1094 0 -1044 3 -1112 -63
-19 -18 -42 -48 -52 -67 -25 -47 -87 -106 -132 -125 -48 -19 -148 -19 -196 0
-46 20 -108 78 -132 126 -25 49 -91 106 -137 118 -26 7 -361 11 -1029 11 -756
0 -993 3 -1002 12 -17 17 -17 3069 0 3086 7 7 39 12 75 12 l63 0 0 -1450 0
-1451 24 -24 c31 -30 100 -40 281 -39 220 1 451 38 740 118 239 66 266 70 425
70 219 -1 366 -43 562 -161 124 -75 146 -83 230 -83 80 0 124 16 204 70 25 18
87 51 137 75 238 113 489 132 757 60 451 -122 721 -165 945 -151 128 8 176 20
197 47 17 20 18 105 18 1470 l0 1449 63 0 c36 0 68 -5 75 -12 9 -9 12 -171 12
-665 l0 -654 25 -24 c31 -32 69 -32 100 0 l25 24 0 666 c0 733 2 704 -63 762
-44 39 -91 53 -174 53 l-63 0 0 48 c0 63 -34 130 -80 157 -31 18 -59 21 -235
26 -203 6 -295 18 -508 65 l-119 27 -26 -20 c-31 -23 -41 -77 -19 -106 31 -44
390 -108 647 -116 l185 -6 3 -1517 2 -1517 -57 -7 c-128 -16 -474 30 -729 97
-65 17 -159 42 -207 55 -345 90 -651 42 -984 -156 l-53 -32 0 1501 0 1500 43
34 c107 89 258 165 412 208 70 20 105 23 280 24 110 1 206 4 212 8 18 11 31
60 22 84 -17 46 -50 56 -204 61 -302 10 -548 -66 -783 -243 l-62 -47 -62 47
c-134 101 -272 166 -447 212 -123 32 -370 41 -496 17z m396 -149 c162 -28 321
-97 454 -197 l70 -53 3 -1504 2 -1503 -32 21 c-78 51 -199 111 -278 139 -153
53 -238 67 -415 66 -174 -2 -207 -7 -480 -82 -82 -23 -213 -53 -290 -67 -164
-30 -419 -51 -488 -41 l-47 7 2 1517 3 1517 185 6 c246 9 415 37 719 121 80
22 178 46 216 53 96 18 275 18 376 0z"/>
<path d="M1680 4094 c-109 -12 -199 -30 -339 -69 -230 -64 -368 -91 -609 -121
-47 -6 -82 -35 -82 -70 0 -67 37 -85 150 -73 141 15 306 47 470 91 316 84 346
89 485 90 146 1 251 -16 377 -63 82 -30 109 -29 138 5 19 24 17 74 -6 96 -25
24 -172 75 -271 94 -83 15 -255 26 -313 20z"/>
<path d="M1622 3770 c-40 -5 -117 -21 -170 -35 -389 -102 -413 -107 -730 -151
-66 -10 -94 -76 -52 -122 17 -17 32 -22 75 -22 116 0 367 47 610 114 220 62
271 70 420 69 136 0 241 -19 356 -62 97 -37 152 -19 152 51 0 43 -33 69 -129
100 -167 55 -374 78 -532 58z"/>
<path d="M1587 3445 c-48 -8 -163 -35 -255 -60 -208 -56 -367 -90 -497 -105
-135 -16 -143 -18 -165 -40 -28 -28 -25 -71 5 -100 23 -21 30 -23 107 -17 152
11 412 64 643 132 106 31 255 55 340 55 91 0 241 -26 325 -56 105 -37 150 -41
174 -15 24 27 25 75 2 100 -22 24 -136 67 -246 92 -115 26 -319 33 -433 14z"/>
<path d="M1585 3125 c-44 -7 -156 -33 -250 -59 -205 -56 -374 -91 -532 -110
-99 -12 -121 -18 -135 -36 -24 -30 -23 -61 4 -95 21 -28 22 -28 112 -21 130
10 336 50 531 103 245 66 277 72 405 79 135 7 256 -10 391 -56 48 -17 95 -30
107 -30 34 0 65 33 65 70 0 47 -35 73 -148 109 -181 58 -373 74 -550 46z"/>
<path d="M1575 2805 c-44 -7 -145 -30 -225 -53 -241 -67 -418 -103 -579 -118
-59 -5 -80 -12 -98 -30 -30 -30 -29 -69 3 -101 25 -24 29 -25 102 -19 171 15
317 46 717 151 124 32 295 43 416 26 46 -7 132 -28 191 -48 121 -40 149 -39
173 6 25 49 5 84 -63 114 -180 78 -426 106 -637 72z"/>
<path d="M1586 2490 c-33 -6 -144 -32 -247 -60 -216 -58 -389 -94 -539 -111
-86 -10 -108 -16 -127 -35 -30 -30 -29 -69 3 -101 24 -24 29 -25 97 -19 178
17 421 68 717 153 88 25 109 27 275 27 188 -1 246 -11 396 -69 58 -23 93 -15
115 27 15 28 15 34 1 63 -13 26 -28 37 -89 59 -140 52 -222 67 -388 71 -85 2
-182 0 -214 -5z"/>
<path d="M1555 2166 c-38 -7 -119 -27 -180 -44 -236 -67 -444 -110 -618 -128
-56 -5 -71 -11 -87 -32 -27 -34 -25 -68 5 -98 24 -24 30 -25 93 -19 181 17
364 56 717 150 75 21 133 28 233 32 160 7 249 -6 391 -53 118 -40 151 -37 170
17 23 68 -29 105 -217 155 -82 22 -123 27 -267 30 -114 2 -193 -1 -240 -10z"/>
<path d="M1530 1841 c-47 -10 -152 -37 -234 -59 -172 -48 -358 -86 -501 -102
-78 -8 -104 -15 -122 -32 -28 -26 -30 -68 -4 -99 17 -22 26 -24 90 -21 146 5
378 53 721 148 76 21 125 27 241 31 171 6 238 -3 391 -54 103 -34 109 -35 133
-19 36 24 49 61 33 94 -17 35 -136 83 -275 111 -131 27 -348 28 -473 2z"/>
<path d="M3270 4094 c-171 -19 -382 -77 -416 -115 -21 -23 -23 -72 -4 -95 29
-34 56 -35 138 -5 126 47 231 64 377 63 139 -1 169 -6 485 -90 164 -44 329
-76 470 -91 113 -12 150 6 150 73 0 45 -39 66 -141 77 -131 14 -366 62 -535
110 -79 22 -177 46 -217 54 -78 14 -250 25 -307 19z"/>
<path d="M3211 3769 c-129 -15 -326 -76 -357 -110 -23 -25 -22 -74 1 -99 23
-26 65 -26 134 1 115 43 220 62 356 62 149 1 200 -7 420 -69 243 -67 494 -114
610 -114 43 0 58 5 75 22 42 46 14 112 -52 122 -316 44 -348 50 -727 150 -159
42 -303 53 -460 35z"/>
<path d="M3230 3453 c-134 -14 -343 -77 -376 -114 -23 -25 -22 -73 2 -100 24
-26 69 -22 174 15 84 30 234 56 325 56 85 0 234 -24 340 -55 231 -68 491 -121
643 -132 77 -6 84 -4 107 17 30 29 33 72 5 100 -22 22 -30 24 -165 40 -130 15
-289 49 -495 105 -243 66 -401 85 -560 68z"/>
<path d="M3164 3124 c-110 -18 -268 -70 -301 -98 -34 -30 -36 -81 -4 -108 31
-24 49 -23 150 12 135 46 256 63 391 56 128 -7 160 -13 405 -79 195 -53 401
-93 531 -103 90 -7 91 -7 112 21 27 34 28 65 4 95 -14 18 -36 24 -132 35 -188
24 -317 52 -625 136 -174 48 -372 60 -531 33z"/>
<path d="M3156 2804 c-174 -31 -298 -80 -316 -124 -9 -23 -9 -34 4 -59 25 -47
52 -48 174 -8 59 20 145 41 191 48 121 17 292 6 416 -26 400 -105 546 -136
717 -151 73 -6 77 -5 102 19 32 32 33 71 3 101 -19 19 -39 25 -103 31 -157 14
-322 49 -659 139 -178 48 -371 58 -529 30z"/>
<path d="M3152 2486 c-83 -16 -192 -48 -255 -75 -57 -25 -76 -64 -53 -110 22
-41 57 -49 115 -26 150 58 208 68 396 69 166 0 188 -2 275 -27 304 -87 535
-136 712 -152 73 -7 78 -6 102 18 32 32 33 71 3 101 -19 19 -41 25 -127 35
-138 15 -365 62 -520 106 -69 20 -154 43 -190 51 -93 21 -366 27 -458 10z"/>
<path d="M3142 2166 c-78 -15 -218 -59 -265 -83 -57 -29 -56 -109 3 -133 24
-10 42 -7 131 24 142 47 231 60 391 53 100 -4 158 -11 233 -32 353 -94 536
-133 717 -150 63 -6 69 -5 93 19 30 30 32 64 5 98 -16 21 -31 27 -87 32 -38 4
-131 18 -208 31 -133 23 -200 39 -480 115 -109 29 -136 33 -290 36 -117 2
-193 -1 -243 -10z"/>
<path d="M3110 1839 c-134 -28 -251 -77 -268 -111 -16 -33 -3 -70 33 -94 24
-16 30 -15 133 19 153 51 220 60 391 54 116 -4 165 -10 241 -31 343 -95 575
-143 721 -148 64 -3 73 -1 90 21 26 31 24 73 -4 99 -18 17 -44 24 -122 32
-137 15 -362 61 -530 109 -208 59 -287 71 -449 70 -100 0 -169 -6 -236 -20z"/>
</g>
</svg>
