<?xml version="1.0" standalone="no"?>
<!DOCTYPE svg PUBLIC "-//W3C//DTD SVG 20010904//EN"
 "http://www.w3.org/TR/2001/REC-SVG-20010904/DTD/svg10.dtd">
<svg version="1.0" xmlns="http://www.w3.org/2000/svg"
 width="512.000000pt" height="512.000000pt" viewBox="0 0 512.000000 512.000000"
 preserveAspectRatio="xMidYMid meet">

<g transform="translate(0.000000,512.000000) scale(0.100000,-0.100000)"
fill="#000000" stroke="none">
<path d="M820 5099 c-357 -55 -658 -322 -760 -674 -103 -355 26 -754 320 -988
81 -65 241 -147 330 -169 l55 -14 -4 -44 -3 -43 145 -144 c178 -177 175 -176
283 -72 41 40 79 69 86 66 7 -3 238 -209 513 -458 1163 -1052 1112 -1008 1173
-1025 70 -21 139 -13 196 20 l43 25 44 -45 c82 -85 171 -111 271 -79 l55 17
259 -148 c205 -116 271 -159 315 -203 92 -93 129 -199 129 -371 0 -175 79
-341 214 -451 65 -54 484 -267 543 -276 61 -10 105 68 72 128 -6 12 -104 67
-239 134 -126 62 -247 128 -269 146 -93 74 -151 202 -151 332 -1 202 -52 346
-164 466 -65 68 -113 100 -376 250 l-215 122 0 87 c0 100 -11 127 -83 204
l-45 49 23 40 c14 26 24 65 28 104 4 52 0 71 -20 116 -19 42 -192 238 -752
857 -399 442 -726 806 -726 810 0 4 32 39 70 77 106 105 105 105 -72 281 -79
78 -151 144 -161 147 -9 4 -28 2 -41 -3 -22 -8 -24 -5 -41 56 -40 150 -133
301 -256 420 -133 127 -260 196 -439 239 -83 19 -266 27 -350 14z m253 -170
c306 -48 558 -275 630 -569 25 -100 29 -146 14 -158 -10 -9 -12 -4 -9 21 2 22
-3 41 -17 58 -56 71 -165 16 -146 -73 9 -38 46 -61 90 -56 19 2 35 4 35 3 0 0
-33 -33 -73 -73 l-72 -72 0 39 c0 68 -59 105 -117 75 -53 -28 -64 -89 -22
-130 20 -21 33 -25 65 -22 21 2 39 3 39 3 0 0 -34 -34 -76 -75 -61 -61 -74
-70 -69 -49 8 31 -16 83 -40 93 -35 13 -76 6 -100 -19 -60 -60 4 -163 83 -134
12 5 22 7 22 6 0 -1 -33 -36 -74 -76 l-74 -74 1 36 c2 77 -85 116 -138 62 -54
-53 -15 -140 60 -138 19 1 35 0 35 -1 0 -1 -31 -32 -69 -70 l-69 -69 1 36 c2
77 -85 116 -138 62 -25 -24 -32 -65 -19 -100 10 -24 62 -48 92 -40 21 5 23 4
14 -8 -26 -31 -223 18 -345 86 -170 96 -292 245 -358 442 -21 62 -24 88 -24
225 0 176 11 223 76 350 151 292 473 458 792 409z m490 -1361 l-483 -483 -60
60 -60 60 482 482 483 483 60 -60 60 -60 -482 -482z m1115 -589 c376 -415 701
-776 723 -802 67 -83 67 -83 -143 -293 -188 -190 -214 -208 -261 -182 -14 7
-370 325 -792 707 -423 382 -780 705 -794 717 l-26 23 295 296 c162 162 299
294 305 292 5 -2 317 -343 693 -758z m806 -1211 c43 -49 46 -85 12 -124 -37
-44 -86 -39 -139 14 l-42 42 55 55 c30 30 60 55 66 55 7 0 29 -19 48 -42z"/>
<path d="M685 4848 c-32 -17 -45 -39 -45 -75 0 -70 78 -106 132 -63 32 24 39
59 22 99 -18 44 -68 62 -109 39z"/>
<path d="M1045 4848 c-51 -29 -61 -93 -20 -133 31 -32 75 -32 111 -1 73 63 -8
182 -91 134z"/>
<path d="M498 4665 c-48 -27 -54 -95 -12 -132 53 -48 134 -13 134 57 0 69 -63
108 -122 75z"/>
<path d="M865 4668 c-51 -29 -61 -93 -20 -133 65 -66 172 15 129 98 -22 41
-70 57 -109 35z"/>
<path d="M1212 4655 c-24 -20 -32 -35 -32 -60 0 -43 41 -85 84 -85 104 1 113
145 10 166 -24 4 -37 0 -62 -21z"/>
<path d="M319 4485 c-29 -16 -52 -66 -42 -93 22 -63 94 -82 138 -37 42 41 31
105 -22 133 -28 15 -42 15 -74 -3z"/>
<path d="M685 4488 c-32 -18 -44 -40 -45 -80 0 -70 91 -105 139 -54 39 42 26
117 -25 136 -32 13 -44 12 -69 -2z"/>
<path d="M1031 4474 c-40 -33 -43 -83 -6 -119 46 -47 119 -25 139 42 13 43
-39 103 -89 103 -7 0 -27 -12 -44 -26z"/>
<path d="M1414 4490 c-12 -5 -29 -19 -38 -32 -48 -69 27 -153 109 -122 19 8
45 55 45 83 0 47 -70 90 -116 71z"/>
<path d="M520 4309 c-48 -10 -66 -38 -60 -94 6 -61 95 -88 138 -42 22 23 29
68 16 102 -10 26 -55 43 -94 34z"/>
<path d="M851 4294 c-62 -52 -28 -144 54 -144 32 0 66 27 78 62 10 28 -13 78
-44 93 -39 21 -53 19 -88 -11z"/>
<path d="M1234 4310 c-55 -21 -70 -94 -29 -135 58 -59 158 -5 140 75 -11 48
-65 78 -111 60z"/>
<path d="M333 4128 c-44 -12 -69 -58 -54 -100 14 -40 38 -57 82 -58 93 -1 109
132 19 162 -8 3 -30 1 -47 -4z"/>
<path d="M1065 4132 c-93 -19 -81 -162 13 -162 45 1 69 17 83 58 20 57 -35
117 -96 104z"/>
<path d="M662 4107 c-50 -53 -13 -137 59 -137 73 0 110 91 57 140 -31 28 -88
27 -116 -3z"/>
<path d="M481 3926 c-71 -76 38 -187 114 -116 33 31 34 88 2 118 -32 30 -87
29 -116 -2z"/>
<path d="M842 3927 c-14 -15 -22 -36 -22 -58 0 -87 122 -114 156 -34 15 38 11
59 -19 93 -28 31 -86 30 -115 -1z"/>
<path d="M666 3749 c-28 -22 -36 -72 -16 -108 16 -31 65 -46 100 -31 37 15 50
37 50 84 0 41 -37 76 -80 76 -15 0 -39 -9 -54 -21z"/>
<path d="M4485 4614 c-376 -125 -525 -180 -537 -195 -16 -19 -18 -54 -18 -401
0 -300 -3 -379 -12 -374 -227 95 -455 -17 -496 -244 -20 -108 22 -235 100
-305 69 -63 140 -90 233 -90 71 0 89 4 147 33 80 39 138 101 170 181 23 55 23
62 26 571 l3 516 425 141 424 141 0 -305 c0 -287 -1 -305 -17 -298 -71 30
-104 36 -173 33 -92 -4 -155 -32 -220 -98 -65 -64 -93 -127 -98 -219 -7 -128
44 -229 153 -303 155 -105 375 -53 477 113 46 74 48 102 48 677 l0 544 -29 29
c-19 19 -39 29 -58 28 -15 0 -262 -79 -548 -175z m381 -789 c29 -17 49 -39 64
-71 79 -163 -126 -319 -260 -198 -153 138 18 373 196 269z m-1018 -342 c15
-11 37 -35 50 -53 29 -44 31 -131 2 -178 -38 -62 -121 -94 -190 -73 -78 23
-122 81 -122 161 0 70 40 133 102 159 38 16 127 7 158 -16z"/>
<path d="M1195 1810 c-302 -87 -574 -166 -603 -175 -85 -26 -82 -5 -82 -529
l0 -454 -52 20 c-162 61 -351 -17 -425 -177 -39 -85 -40 -195 -2 -276 51 -109
138 -177 251 -198 149 -27 306 55 370 194 23 49 23 57 28 489 l5 439 485 138
c267 76 497 141 513 145 l27 6 0 -221 0 -220 -36 15 c-175 73 -365 0 -445
-171 -45 -94 -42 -198 6 -295 47 -92 143 -162 247 -178 187 -28 352 90 388
277 13 68 14 1240 1 1274 -16 41 -39 57 -84 56 -23 -1 -289 -72 -592 -159z
m515 -120 l0 -79 -41 -11 c-55 -15 -949 -269 -972 -276 -16 -5 -18 1 -15 78
l3 83 490 141 c270 78 500 142 513 143 21 1 22 -2 22 -79z m-84 -851 c81 -49
104 -174 45 -246 -101 -122 -301 -56 -301 100 0 136 140 216 256 146z m-1196
-341 c45 -31 69 -66 76 -110 18 -110 -56 -200 -166 -200 -137 0 -215 149 -137
262 47 70 160 93 227 48z"/>
</g>
</svg>
