<?xml version="1.0" standalone="no"?>
<!DOCTYPE svg PUBLIC "-//W3C//DTD SVG 20010904//EN"
 "http://www.w3.org/TR/2001/REC-SVG-20010904/DTD/svg10.dtd">
<svg version="1.0" xmlns="http://www.w3.org/2000/svg"
 width="512.000000pt" height="512.000000pt" viewBox="0 0 512.000000 512.000000"
 preserveAspectRatio="xMidYMid meet">

<g transform="translate(0.000000,512.000000) scale(0.100000,-0.100000)"
fill="#000000" stroke="none">
<path d="M4338 5110 c-10 -6 -43 -43 -75 -83 -31 -40 -60 -76 -64 -81 -4 -5
-27 8 -50 28 -54 45 -102 49 -148 10 -26 -21 -31 -33 -31 -69 0 -37 6 -50 46
-94 33 -36 43 -55 37 -64 -6 -6 -59 -75 -118 -152 -60 -77 -110 -142 -112
-144 -2 -3 -29 20 -61 51 -64 62 -89 78 -126 78 -35 0 -84 -45 -92 -85 -8 -43
5 -65 84 -147 l64 -67 -75 -93 c-41 -51 -275 -293 -519 -536 l-445 -444 -69
35 c-220 110 -477 152 -682 112 -46 -9 -115 -34 -172 -62 -76 -37 -109 -61
-171 -123 -69 -69 -83 -91 -147 -221 -61 -126 -79 -152 -134 -205 -105 -101
-169 -126 -366 -144 -270 -24 -468 -115 -638 -291 -113 -118 -179 -230 -227
-384 -155 -499 93 -1160 586 -1558 508 -412 1149 -493 1570 -201 241 168 380
421 408 743 7 82 19 151 35 197 13 39 24 79 24 90 0 30 -29 65 -66 80 -29 12
-39 12 -68 0 -67 -28 -101 -120 -122 -329 -25 -252 -82 -386 -224 -527 -98
-97 -165 -140 -282 -181 -205 -70 -420 -65 -664 16 -449 149 -831 525 -978
965 -46 140 -61 234 -60 385 1 168 21 253 91 395 38 79 61 109 132 180 143
142 277 199 529 224 201 20 297 56 418 155 83 69 141 149 210 290 75 153 129
216 226 263 171 84 411 75 626 -23 l66 -30 -284 -285 c-157 -156 -294 -286
-305 -288 -11 -2 -47 -9 -80 -15 -195 -36 -368 -200 -419 -397 -48 -186 7
-388 143 -523 173 -172 423 -211 643 -100 134 68 252 225 279 374 6 33 13 69
15 80 2 11 132 148 288 305 l285 284 31 -67 c58 -128 75 -208 75 -357 0 -116
-3 -145 -23 -203 -27 -76 -24 -106 13 -143 29 -29 88 -33 124 -8 74 53 114
331 75 534 -18 97 -63 230 -111 324 l-35 69 449 449 c246 247 488 481 537 519
l90 70 60 -59 c109 -106 144 -116 202 -58 56 56 47 95 -43 187 l-55 57 94 74
c51 40 121 95 156 122 l62 47 51 -45 c43 -39 58 -46 92 -46 58 0 97 38 97 95
0 33 -7 50 -36 84 -20 23 -35 43 -33 45 2 2 39 31 82 65 152 121 162 101 -251
514 -313 313 -342 339 -378 343 -21 2 -47 0 -56 -6z m519 -726 c-36 -33 -776
-604 -783 -604 -11 0 -294 282 -294 293 0 4 138 185 307 403 l307 395 238
-238 c184 -184 235 -240 225 -249z m-1072 -604 l140 -140 -736 -736 -735 -735
-36 58 c-47 75 -115 144 -190 190 l-59 37 733 733 c403 403 735 733 738 733 3
0 68 -63 145 -140z m-1779 -1491 c278 -51 386 -389 187 -587 -77 -76 -129 -97
-248 -97 -90 0 -105 3 -153 28 -70 37 -128 97 -161 166 -22 48 -26 69 -26 151
0 80 4 103 25 145 48 98 146 173 253 194 59 12 57 12 123 0z"/>
<path d="M819 1591 c-23 -23 -29 -38 -29 -73 l0 -43 343 -342 342 -343 43 0
c59 0 102 41 102 97 0 36 -12 50 -348 385 -335 336 -349 348 -385 348 -29 0
-46 -7 -68 -29z"/>
<path d="M2851 1586 c-59 -33 -67 -102 -17 -152 50 -50 121 -42 152 17 46 91
-47 184 -135 135z"/>
</g>
</svg>
