<?xml version="1.0" standalone="no"?>
<!DOCTYPE svg PUBLIC "-//W3C//DTD SVG 20010904//EN"
 "http://www.w3.org/TR/2001/REC-SVG-20010904/DTD/svg10.dtd">
<svg version="1.0" xmlns="http://www.w3.org/2000/svg"
 width="512.000000pt" height="512.000000pt" viewBox="0 0 512.000000 512.000000"
 preserveAspectRatio="xMidYMid meet">

<g transform="translate(0.000000,512.000000) scale(0.100000,-0.100000)"
fill="#000000" stroke="none">
<path d="M3898 4923 c-17 -20 -78 -217 -78 -252 0 -38 19 -61 49 -61 16 0 34
6 40 13 13 17 81 238 81 265 0 46 -62 69 -92 35z"/>
<path d="M4500 4773 c-20 -5 -292 -379 -298 -409 -10 -56 56 -74 99 -26 63 68
269 364 269 386 0 33 -35 57 -70 49z"/>
<path d="M2365 4673 c-284 -34 -518 -104 -781 -233 -425 -209 -817 -557 -1038
-921 -148 -244 -259 -574 -301 -892 -113 -866 361 -1787 1125 -2185 526 -274
1125 -338 1748 -186 263 64 521 165 767 300 151 83 219 134 256 192 44 70 37
145 -20 188 -12 9 -2 25 58 95 155 179 247 317 347 522 271 558 287 1223 42
1795 -349 814 -1145 1339 -2016 1331 -86 -1 -170 -4 -187 -6z m413 -124 c450
-49 878 -252 1211 -573 578 -558 781 -1405 519 -2166 -223 -646 -757 -1147
-1418 -1330 -239 -66 -541 -87 -790 -55 -860 109 -1553 724 -1765 1564 -58
233 -74 547 -40 782 137 930 862 1648 1790 1773 124 17 364 20 493 5z"/>
<path d="M2578 3986 c-107 -31 -202 -110 -247 -205 -35 -75 -37 -194 -4 -257
58 -109 193 -168 330 -144 86 15 167 57 224 117 59 62 74 87 94 158 37 124
-20 251 -140 313 -60 31 -182 39 -257 18z m199 -111 c38 -16 73 -42 73 -55 0
-4 -26 -10 -58 -13 -111 -10 -248 -101 -309 -204 -22 -39 -28 -43 -40 -30 -23
23 -31 78 -18 129 26 104 141 188 257 188 32 0 75 -7 95 -15z"/>
<path d="M1527 3620 c-104 -26 -221 -120 -266 -213 -28 -57 -37 -147 -22 -204
16 -60 67 -121 131 -157 47 -26 66 -31 145 -34 80 -4 99 -1 153 21 155 62 245
182 244 327 0 155 -108 259 -277 266 -38 2 -87 -1 -108 -6z m193 -122 c24 -13
50 -33 58 -45 14 -22 14 -23 -25 -23 -95 0 -252 -116 -305 -224 -12 -25 -25
-46 -29 -46 -4 0 -21 16 -38 35 -26 30 -31 44 -31 86 0 164 220 293 370 217z"/>
<path d="M2286 3061 c-162 -54 -270 -188 -271 -336 0 -59 5 -78 30 -124 57
-104 165 -157 300 -149 283 18 455 338 286 530 -77 87 -221 120 -345 79z m214
-113 c52 -27 78 -60 85 -108 3 -19 3 -30 -1 -23 -3 7 -21 17 -40 23 -80 27
-221 -36 -319 -142 l-64 -69 -15 30 c-22 41 -20 114 4 160 25 50 100 116 153
135 65 22 145 20 197 -6z"/>
<path d="M4735 4154 c-44 -24 -117 -56 -163 -71 -94 -29 -119 -53 -103 -96 5
-14 19 -28 29 -31 56 -18 293 76 370 147 27 25 28 58 4 80 -27 25 -49 20 -137
-29z"/>
</g>
</svg>
