<?xml version="1.0" standalone="no"?>
<!DOCTYPE svg PUBLIC "-//W3C//DTD SVG 20010904//EN"
 "http://www.w3.org/TR/2001/REC-SVG-20010904/DTD/svg10.dtd">
<svg version="1.0" xmlns="http://www.w3.org/2000/svg"
 width="349.000000pt" height="371.000000pt" viewBox="0 0 349.000000 371.000000"
 preserveAspectRatio="xMidYMid meet">

<g transform="translate(0.000000,371.000000) scale(0.100000,-0.100000)"
fill="#000000" stroke="none">
<path d="M1396 3695 c-8 -8 -17 -24 -21 -34 -3 -10 -16 -22 -28 -25 -26 -7
-67 -7 -49 1 6 2 12 11 12 19 0 8 5 14 10 14 6 0 10 7 10 15 0 8 -5 15 -10 15
-14 0 -83 -29 -90 -38 -3 -4 -30 -15 -60 -26 -30 -10 -81 -34 -113 -52 -32
-19 -62 -34 -66 -34 -12 0 -141 -68 -185 -98 -21 -15 -49 -25 -61 -24 -18 2
-24 -3 -28 -27 -4 -17 -12 -31 -18 -31 -11 0 -49 -32 -151 -127 -21 -20 -42
-51 -47 -71 -6 -19 -22 -47 -36 -62 -27 -28 -65 -120 -65 -155 0 -12 -11 -45
-25 -73 -14 -29 -25 -56 -25 -62 0 -5 -4 -10 -10 -10 -5 0 -10 -9 -10 -20 0
-11 4 -20 8 -20 5 0 3 -39 -4 -87 -28 -182 -14 -276 67 -470 42 -102 42 -119
-5 -166 -29 -29 -35 -67 -11 -67 9 0 34 9 55 20 38 19 41 19 60 3 11 -10 20
-22 20 -28 1 -5 9 -28 20 -50 11 -22 19 -61 20 -87 0 -34 6 -54 20 -68 11 -11
20 -26 20 -34 0 -8 5 -18 10 -21 6 -3 10 -16 10 -28 0 -38 54 -188 77 -214 13
-13 23 -28 23 -34 0 -5 7 -9 15 -9 8 0 15 7 15 15 0 8 -3 15 -8 15 -16 0 -92
197 -92 239 0 25 -18 68 -42 100 -10 13 -18 41 -18 63 0 21 -7 55 -15 75 -8
19 -15 46 -15 59 0 35 -36 67 -70 62 -27 -4 -28 -4 -27 51 1 43 -7 75 -35 141
-52 124 -73 206 -72 280 1 90 23 258 39 300 22 60 33 93 51 155 9 33 29 76 44
95 15 19 34 51 42 70 14 32 182 210 199 210 5 0 12 6 16 13 4 6 24 21 43 31
19 10 69 38 110 61 41 23 86 46 99 50 13 4 46 20 72 36 27 16 72 38 101 51 29
12 56 27 60 32 5 7 8 4 8 -6 0 -38 117 -36 150 2 10 12 21 27 23 33 3 9 15 9
50 0 78 -21 167 -14 167 13 0 10 -12 12 -49 7 -33 -4 -65 0 -97 11 -59 20 -69
20 -88 1z"/>
<path d="M1810 3665 c0 -9 23 -25 53 -39 29 -12 61 -35 71 -50 20 -32 71 -56
118 -56 18 0 56 -8 83 -19 68 -25 228 -103 240 -118 6 -6 24 -20 40 -30 149
-90 282 -275 292 -407 2 -34 13 -83 23 -111 33 -89 34 -172 5 -281 -14 -53
-30 -104 -34 -113 -5 -9 -12 -36 -15 -61 -12 -77 -30 -142 -41 -145 -5 -2 -22
-6 -37 -9 -16 -4 -28 -13 -28 -20 0 -8 -7 -16 -15 -20 -8 -3 -15 -14 -15 -24
0 -10 -9 -27 -20 -37 -11 -10 -20 -26 -20 -36 0 -10 -7 -44 -15 -76 -9 -32
-15 -77 -13 -100 1 -23 -3 -47 -8 -55 -6 -7 -18 -32 -29 -55 -10 -24 -22 -43
-26 -43 -4 0 -9 57 -11 128 -3 80 -10 148 -21 185 -9 32 -17 72 -17 89 0 45
-24 114 -89 263 -15 33 -33 80 -41 105 -7 25 -17 49 -22 55 -4 5 -8 19 -8 30
0 12 -9 31 -20 43 -11 12 -20 32 -20 45 0 59 -73 147 -154 187 -29 14 -56 36
-68 55 -20 34 -87 85 -112 85 -8 0 -18 5 -22 11 -3 6 -19 9 -35 7 -16 -3 -29
-1 -29 4 0 18 -49 8 -55 -12 -6 -19 -24 -24 -72 -20 -15 1 -23 -4 -23 -14 0
-10 -9 -16 -25 -16 -17 0 -25 -6 -25 -16 0 -14 8 -16 56 -11 30 3 61 10 67 15
20 15 56 21 60 8 3 -8 12 -8 35 0 28 11 31 10 36 -12 8 -29 36 -32 36 -3 0 20
1 20 31 2 18 -10 39 -35 49 -55 20 -46 63 -81 88 -74 12 4 32 -8 64 -42 48
-49 57 -69 63 -128 2 -22 11 -41 24 -50 12 -9 21 -25 21 -38 0 -12 4 -26 8
-31 5 -6 15 -30 23 -55 7 -25 23 -65 35 -90 40 -83 72 -175 84 -235 6 -33 19
-94 28 -135 12 -54 16 -112 15 -206 l-3 -132 27 -7 c17 -4 29 -2 31 4 2 6 7 9
12 6 8 -5 -28 -85 -43 -96 -5 -3 -17 -102 -27 -220 -14 -167 -16 -234 -8 -304
5 -49 13 -94 18 -99 5 -4 41 -16 82 -26 130 -31 190 -52 209 -71 21 -21 25
-71 9 -129 -21 -83 -40 -146 -49 -165 -5 -11 -19 -54 -31 -95 -27 -100 -79
-255 -100 -305 -10 -22 -25 -60 -34 -84 -9 -24 -28 -59 -43 -77 l-25 -34 24 0
c33 0 51 22 82 100 15 36 31 74 35 85 5 11 14 36 21 55 13 36 20 56 39 103 6
15 11 39 11 52 0 13 4 26 9 29 5 3 11 20 14 38 3 18 19 72 36 120 48 137 61
205 52 273 -5 37 -14 63 -26 71 -17 13 -92 37 -217 69 l-67 18 -12 50 c-11 49
-10 120 7 375 l7 92 32 -6 c18 -3 43 -1 55 6 12 6 24 9 27 6 3 -3 -8 -44 -26
-92 -17 -47 -31 -99 -31 -116 0 -16 -5 -49 -11 -74 -9 -33 -8 -48 0 -58 6 -7
55 -23 109 -35 158 -34 225 -59 247 -91 43 -61 136 -170 145 -170 6 0 10 -6
10 -12 0 -7 10 -26 23 -41 19 -24 39 -32 147 -56 69 -16 159 -42 201 -59 99
-40 149 -50 149 -29 0 10 -18 21 -47 30 -27 8 -79 26 -118 40 -38 15 -119 37
-179 51 -93 21 -113 29 -137 56 -16 17 -29 40 -29 51 0 10 -7 19 -15 19 -9 0
-19 8 -22 18 -4 9 -24 35 -45 58 -21 22 -46 50 -54 62 -8 12 -20 22 -25 22 -6
0 -18 8 -27 18 -19 21 -62 36 -142 51 -30 6 -77 16 -105 23 l-50 13 4 65 c1
36 11 85 21 110 32 78 62 174 67 213 4 29 10 37 25 37 15 0 19 5 15 20 -3 13
0 20 9 20 8 0 14 7 14 15 0 8 -9 15 -20 15 -11 0 -20 -6 -20 -14 0 -8 -7 -16
-15 -20 -8 -3 -15 -12 -15 -21 0 -8 -3 -15 -7 -15 -5 0 -17 -14 -28 -30 -13
-19 -34 -34 -58 -41 -68 -18 -72 0 -22 95 40 77 44 101 16 93 -16 -4 -15 0 7
42 14 25 30 49 35 52 5 3 6 26 2 51 -6 41 -5 45 19 56 29 13 34 43 11 62 -21
17 -19 54 4 74 11 10 21 28 23 39 3 25 10 19 55 -48 23 -35 27 -52 30 -143 3
-87 0 -110 -17 -149 -25 -57 -25 -73 0 -73 15 0 20 7 20 24 0 14 8 32 18 42
14 15 17 33 14 111 -2 61 0 93 7 93 6 0 11 18 11 40 0 32 -4 40 -18 40 -12 0
-27 16 -42 46 -13 25 -32 52 -43 59 -13 9 -15 15 -7 20 6 4 12 5 13 4 18 -34
27 -45 42 -48 14 -2 17 2 12 18 -2 11 0 22 7 24 6 2 12 19 12 38 2 47 29 180
41 204 6 11 23 70 38 132 22 93 25 118 16 144 -6 18 -11 47 -11 64 0 18 -8 50
-17 71 -9 22 -20 70 -23 107 -11 107 -70 214 -179 324 -49 50 -108 99 -137
113 -27 14 -52 30 -56 35 -3 6 -53 32 -110 59 -56 27 -111 53 -120 57 -10 5
-35 9 -57 9 -56 0 -90 16 -134 61 -21 21 -45 39 -55 39 -9 0 -26 7 -36 15 -25
19 -46 19 -46 0z"/>
<path d="M1760 3635 c0 -8 7 -15 15 -15 8 0 15 7 15 15 0 8 -7 15 -15 15 -8 0
-15 -7 -15 -15z"/>
<path d="M2263 3223 c-7 -2 -13 -14 -13 -25 0 -16 5 -19 24 -14 19 5 25 1 30
-18 3 -14 14 -32 23 -41 13 -13 13 -19 3 -25 -19 -12 29 -160 53 -160 9 0 17
-4 17 -10 0 -5 7 -10 15 -10 13 0 15 7 9 38 -10 58 -43 146 -58 158 -8 5 -18
23 -22 38 -3 15 -12 30 -19 32 -7 3 -15 14 -18 25 -5 19 -19 23 -44 12z"/>
<path d="M1020 3180 c0 -11 7 -20 15 -20 8 0 15 9 15 20 0 11 -7 20 -15 20 -8
0 -15 -9 -15 -20z"/>
<path d="M1060 3145 c0 -8 7 -15 15 -15 8 0 15 7 15 15 0 8 -7 15 -15 15 -8 0
-15 -7 -15 -15z"/>
<path d="M1050 3090 c0 -20 5 -30 15 -30 10 0 15 10 15 30 0 20 -5 30 -15 30
-10 0 -15 -10 -15 -30z"/>
<path d="M890 2985 c0 -16 6 -25 15 -25 9 0 15 9 15 25 0 16 -6 25 -15 25 -9
0 -15 -9 -15 -25z"/>
<path d="M1469 2975 c-22 -22 -38 -27 -120 -34 -98 -9 -149 -26 -149 -50 0
-10 9 -12 33 -7 17 4 55 8 82 11 71 5 195 35 195 46 0 5 7 9 15 9 16 0 19 9 9
34 -9 23 -36 19 -65 -9z"/>
<path d="M1105 2921 c-17 -3 -31 -14 -33 -24 -6 -31 19 -128 39 -148 17 -17
17 -20 4 -25 -12 -5 -14 -14 -9 -38 6 -27 5 -29 -9 -18 -17 14 -77 131 -77
150 0 6 -9 12 -20 12 -17 0 -20 -7 -20 -44 0 -50 15 -99 42 -138 10 -14 18
-36 18 -47 0 -17 6 -21 35 -21 26 0 35 4 36 18 0 10 3 12 6 5 8 -21 33 -15 33
7 0 11 5 20 10 20 6 0 10 -9 10 -20 0 -13 7 -20 20 -20 28 0 25 30 -6 56 -22
20 -24 25 -12 44 11 19 10 23 -7 38 -11 9 -28 38 -38 63 -24 62 -11 99 33 99
32 0 42 23 14 34 -18 7 -26 6 -69 -3z"/>
<path d="M1850 2885 c0 -8 7 -15 15 -15 8 0 15 7 15 15 0 8 -7 15 -15 15 -8 0
-15 -7 -15 -15z"/>
<path d="M924 2618 c3 -29 6 -79 6 -110 0 -46 3 -58 15 -58 13 0 16 17 14 110
-2 102 -3 110 -22 110 -18 0 -19 -5 -13 -52z"/>
<path d="M1227 2633 c-24 -23 35 -70 73 -58 14 4 20 2 20 -9 0 -9 9 -16 20
-16 13 0 20 7 20 20 0 14 -15 27 -50 45 -50 26 -71 30 -83 18z"/>
<path d="M970 2555 c0 -42 3 -55 15 -55 9 0 15 -9 15 -25 0 -18 5 -25 19 -25
23 0 51 25 51 46 0 8 4 14 10 14 14 0 1 -30 -31 -71 -21 -27 -43 -41 -86 -54
-68 -21 -171 -71 -227 -108 -21 -15 -43 -27 -47 -27 -5 0 -16 -14 -25 -31 -13
-26 -16 -68 -17 -223 -2 -173 0 -201 23 -293 15 -62 30 -103 38 -103 16 0 15
15 -8 115 -16 69 -20 121 -20 271 0 102 4 194 10 204 20 38 235 160 282 160 6
0 29 9 52 21 39 19 74 61 86 102 3 10 7 19 10 19 11 3 140 -47 140 -54 0 -5
14 -8 30 -8 20 0 30 5 30 15 0 11 11 15 40 15 27 0 40 4 40 14 0 20 -18 32
-78 51 -29 10 -55 21 -58 26 -9 16 -34 10 -34 -8 0 -18 41 -43 68 -43 7 0 11
-4 8 -9 -15 -24 -195 37 -196 67 0 17 -30 15 -30 -3 0 -8 -6 -15 -14 -15 -8 0
-16 7 -20 15 -8 23 -34 18 -39 -7 -2 -13 -5 -4 -6 20 -1 30 -5 42 -16 42 -12
0 -15 -13 -15 -55z m71 -52 c-12 -20 -14 -14 -5 12 4 9 9 14 11 11 3 -2 0 -13
-6 -23z"/>
<path d="M1376 2575 c-11 -28 -7 -35 20 -35 21 0 25 4 22 22 -4 27 -33 36 -42
13z"/>
<path d="M1170 2559 c0 -14 25 -39 39 -39 17 0 13 37 -5 44 -23 9 -34 7 -34
-5z"/>
<path d="M770 2415 c0 -16 6 -25 15 -25 9 0 15 9 15 25 0 16 -6 25 -15 25 -9
0 -15 -9 -15 -25z"/>
<path d="M1755 2387 c-208 -69 -205 -68 -205 -83 0 -8 -7 -14 -15 -14 -11 0
-15 -12 -15 -50 0 -38 4 -50 15 -50 11 0 15 12 15 49 l0 48 48 12 c26 7 67 19
92 27 25 9 68 22 95 30 71 19 145 55 145 71 0 18 -6 17 -175 -40z"/>
<path d="M1990 2355 c0 -8 7 -15 15 -15 8 0 15 7 15 15 0 8 -7 15 -15 15 -8 0
-15 -7 -15 -15z"/>
<path d="M1100 2335 c0 -8 7 -15 15 -15 8 0 15 7 15 15 0 8 -7 15 -15 15 -8 0
-15 -7 -15 -15z"/>
<path d="M680 2310 c0 -11 7 -20 15 -20 8 0 15 9 15 20 0 11 -7 20 -15 20 -8
0 -15 -9 -15 -20z"/>
<path d="M1856 2315 c-22 -8 -43 -12 -48 -9 -12 8 -123 -15 -126 -26 -2 -6
-10 -10 -18 -10 -8 0 -14 -7 -14 -15 0 -8 7 -15 15 -15 8 0 15 4 15 9 0 14 44
21 52 8 6 -9 12 -9 28 1 11 6 37 12 58 12 21 0 43 5 50 12 6 6 34 11 62 10 35
-1 50 3 50 12 0 27 -64 33 -124 11z"/>
<path d="M920 2265 c0 -12 13 -15 58 -15 91 0 154 -28 226 -99 67 -66 86 -74
86 -36 0 14 -5 25 -11 25 -6 0 -39 29 -73 63 -69 71 -85 77 -213 77 -58 0 -73
-3 -73 -15z"/>
<path d="M833 2167 c-44 -15 -43 -37 2 -37 19 0 35 5 35 10 0 25 162 -3 218
-38 67 -42 92 -66 92 -90 0 -13 9 -35 20 -50 18 -22 20 -34 14 -101 -3 -42
-14 -94 -25 -116 -55 -122 -109 -248 -109 -256 0 -5 6 -9 13 -9 8 0 35 46 61
103 26 56 56 118 66 139 13 24 22 68 26 133 6 88 5 98 -14 125 -12 16 -22 40
-22 54 0 18 -15 36 -55 68 -91 71 -109 78 -205 77 -47 -1 -100 -7 -117 -12z"/>
<path d="M1727 2109 c-38 -19 -61 -38 -67 -55 -22 -57 23 -89 56 -39 l16 24
33 -34 c24 -26 41 -35 65 -35 36 0 69 32 70 68 0 25 14 27 50 7 14 -8 49 -14
78 -15 49 0 53 2 50 22 -3 21 -17 28 -158 73 -68 22 -127 17 -193 -16z m106
-57 c14 2 23 11 25 26 2 12 10 22 20 22 12 0 13 -3 4 -12 -7 -7 -12 -19 -12
-27 0 -20 -30 -51 -48 -51 -9 0 -30 16 -48 35 l-32 35 32 8 c28 8 31 6 34 -15
3 -18 9 -23 25 -21z"/>
<path d="M1002 2045 c-7 -8 -27 -15 -45 -15 -18 0 -57 -9 -87 -20 -30 -11 -56
-20 -57 -20 -2 0 -3 -7 -3 -16 0 -13 6 -15 28 -10 15 4 38 9 52 12 24 4 24 4
3 -5 -13 -6 -23 -15 -23 -20 0 -18 -54 -23 -66 -7 -14 20 -34 21 -34 2 0 -35
12 -46 54 -46 34 0 46 5 66 30 14 16 31 29 38 30 6 0 12 6 13 13 0 6 7 -2 14
-19 26 -59 79 -77 127 -42 22 15 33 18 36 10 7 -22 33 -42 53 -42 15 0 19 7
19 35 0 29 -8 43 -42 75 -23 22 -49 40 -59 40 -9 0 -19 4 -21 9 -6 18 -52 21
-66 6z m38 -55 c0 -14 37 -13 42 1 2 7 9 5 17 -5 11 -13 11 -16 -1 -16 -8 0
-23 -9 -33 -20 -32 -35 -75 -19 -75 27 0 18 6 23 25 23 14 0 25 -4 25 -10z"/>
<path d="M1330 2034 c-12 -4 -15 -24 -15 -104 0 -73 -6 -123 -23 -187 -30
-115 -37 -175 -23 -202 26 -47 167 -87 159 -43 -2 12 -16 19 -46 23 -42 5 -92
41 -92 66 0 7 14 61 30 120 25 86 31 128 31 206 1 53 5 97 10 97 5 0 9 7 9 15
0 15 -10 17 -40 9z"/>
<path d="M1560 2016 c0 -28 23 -76 36 -76 17 0 18 16 3 59 -11 31 -39 44 -39
17z"/>
<path d="M1680 1957 c0 -8 10 -17 23 -21 35 -9 47 -7 47 9 0 8 -6 15 -12 15
-7 0 -23 3 -35 6 -17 5 -23 2 -23 -9z"/>
<path d="M2540 1915 c0 -8 9 -15 20 -15 11 0 20 7 20 15 0 8 -9 15 -20 15 -11
0 -20 -7 -20 -15z"/>
<path d="M2570 1825 c-7 -14 -22 -25 -32 -25 -13 0 -18 -6 -16 -17 4 -22 38
-30 38 -10 0 10 8 13 25 9 23 -4 25 -1 25 32 0 43 -20 48 -40 11z"/>
<path d="M750 1673 c0 -29 23 -83 35 -83 18 0 18 2 3 51 -6 22 -17 39 -25 39
-7 0 -13 -3 -13 -7z"/>
<path d="M825 1558 c4 -18 11 -37 16 -42 5 -6 9 -22 9 -37 0 -37 9 -59 25 -59
10 0 12 14 8 58 -7 69 -22 106 -47 110 -16 3 -17 -1 -11 -30z"/>
<path d="M1440 1545 c0 -8 7 -15 15 -15 8 0 15 7 15 15 0 8 -7 15 -15 15 -8 0
-15 -7 -15 -15z"/>
<path d="M1468 1503 c-10 -2 -18 -11 -18 -20 0 -12 8 -14 36 -10 19 3 43 3 52
-1 11 -4 -4 -9 -38 -12 -50 -5 -55 -7 -58 -30 -3 -25 -39 -50 -72 -50 -9 0
-27 -11 -39 -24 -12 -13 -40 -31 -62 -41 -46 -21 -55 -51 -11 -40 15 3 43 16
62 28 100 63 126 62 117 -8 -5 -35 -4 -45 8 -45 16 0 31 60 21 85 -3 8 -1 15
4 15 6 0 10 18 10 40 0 35 3 40 24 40 13 0 40 -7 59 -15 20 -8 46 -15 57 -15
11 0 20 7 20 15 0 8 -7 15 -15 15 -8 0 -15 9 -15 19 0 44 -74 72 -142 54z"/>
<path d="M1150 1451 c0 -50 8 -71 27 -71 11 0 14 6 9 23 -3 12 -6 37 -6 55 0
22 -5 32 -15 32 -11 0 -15 -11 -15 -39z"/>
<path d="M1310 1465 c0 -8 7 -15 15 -15 8 0 15 7 15 15 0 8 -7 15 -15 15 -8 0
-15 -7 -15 -15z"/>
<path d="M750 1411 c0 -5 11 -32 25 -59 14 -28 25 -56 25 -63 0 -16 86 -229
121 -299 12 -25 34 -61 50 -81 l29 -37 -41 -33 c-36 -30 -102 -61 -264 -126
-22 -9 -47 -23 -56 -30 -8 -7 -20 -13 -25 -13 -6 0 -29 -19 -52 -43 -50 -51
-70 -62 -235 -126 -132 -51 -217 -95 -217 -111 0 -6 -9 -10 -20 -10 -11 0 -23
-7 -26 -15 -4 -8 -12 -15 -19 -15 -18 0 -47 -36 -43 -56 2 -14 9 -11 37 15 18
17 37 31 41 31 5 0 15 6 22 13 24 23 157 88 264 128 137 51 151 59 218 118 52
45 112 75 341 171 34 14 105 81 105 98 0 10 -15 40 -33 67 -19 28 -42 66 -51
85 -29 57 -116 273 -116 287 0 26 -50 113 -65 113 -8 0 -15 -4 -15 -9z"/>
<path d="M1200 1376 c0 -12 28 -25 53 -26 18 0 5 28 -15 34 -33 8 -38 8 -38
-8z"/>
<path d="M926 1314 c-10 -27 -7 -44 9 -44 8 0 15 3 15 8 0 4 3 17 6 30 7 26
-20 32 -30 6z"/>
<path d="M1480 1316 c0 -25 12 -46 26 -46 16 0 16 5 8 38 -7 24 -34 31 -34 8z"/>
<path d="M1358 1243 c-1 -5 -23 -18 -48 -31 -25 -12 -69 -45 -97 -72 -44 -42
-53 -55 -53 -85 0 -35 0 -35 45 -35 33 0 45 4 45 15 0 10 -10 15 -30 15 -16 0
-30 4 -30 9 0 14 85 92 128 118 39 24 77 30 87 13 11 -17 83 -12 93 7 18 32
60 21 202 -52 14 -7 46 -15 73 -19 37 -4 47 -3 47 9 0 8 -12 17 -27 21 -16 3
-67 23 -114 45 -104 48 -157 59 -174 36 -15 -20 -61 -32 -69 -18 -4 6 -16 11
-27 11 -10 0 -19 5 -19 10 0 12 -27 14 -32 3z"/>
<path d="M1530 1155 c0 -9 9 -15 25 -15 16 0 25 6 25 15 0 9 -9 15 -25 15 -16
0 -25 -6 -25 -15z"/>
<path d="M1500 1104 c-36 -7 -85 -19 -110 -27 -43 -13 -45 -15 -42 -48 4 -45
44 -78 95 -79 26 0 37 4 37 15 0 10 11 15 35 15 24 0 35 -5 35 -15 0 -10 10
-15 30 -15 20 0 30 5 30 15 0 8 -9 15 -20 15 -11 0 -20 7 -20 15 0 11 -12 15
-45 15 -25 0 -45 -4 -45 -10 0 -15 -43 -12 -68 6 -32 22 -28 30 26 49 35 13
92 19 220 22 126 4 172 9 172 18 0 25 -223 31 -330 9z"/>
<path d="M1680 989 c-47 -40 -79 -54 -177 -75 -52 -11 -83 -23 -83 -31 0 -7
-7 -13 -15 -13 -8 0 -15 -7 -15 -15 0 -8 7 -15 15 -15 8 0 15 7 15 15 0 10 10
15 27 15 15 0 62 7 104 17 63 13 88 24 133 60 53 42 72 74 44 73 -7 -1 -29
-14 -48 -31z"/>
<path d="M2220 970 c-24 -24 -25 -36 -5 -57 20 -19 42 -11 56 21 23 50 -12 75
-51 36z"/>
<path d="M2430 860 c0 -29 4 -40 15 -40 11 0 15 11 15 40 0 29 -4 40 -15 40
-11 0 -15 -11 -15 -40z"/>
<path d="M2130 865 c0 -8 7 -15 15 -15 8 0 15 7 15 15 0 8 -7 15 -15 15 -8 0
-15 -7 -15 -15z"/>
<path d="M2092 838 c-16 -16 -15 -38 1 -38 17 0 37 20 37 37 0 16 -22 17 -38
1z"/>
<path d="M2152 828 c-16 -16 -15 -38 1 -38 17 0 37 20 37 37 0 16 -22 17 -38
1z"/>
<path d="M2000 771 c-25 -14 -71 -45 -102 -68 -32 -24 -61 -43 -65 -43 -5 0
-25 -9 -46 -20 -39 -21 -103 -22 -269 -4 -57 6 -65 -12 -19 -39 23 -13 53 -17
143 -17 130 0 174 15 277 93 31 24 78 56 104 71 26 16 47 34 47 42 0 20 -18
16 -70 -15z"/>
<path d="M2430 753 c0 -27 -3 -72 -6 -100 -6 -43 -4 -53 8 -53 17 0 28 57 28
146 0 41 -4 54 -15 54 -11 0 -15 -12 -15 -47z"/>
<path d="M1310 775 c0 -8 7 -15 15 -15 8 0 15 7 15 15 0 8 -7 15 -15 15 -8 0
-15 -7 -15 -15z"/>
<path d="M2094 743 c-10 -20 -23 -44 -28 -53 -5 -10 -25 -23 -43 -29 -18 -7
-33 -17 -33 -22 0 -5 -7 -9 -14 -9 -36 0 -218 -130 -263 -188 -19 -23 -16 -67
7 -112 24 -47 54 -69 105 -77 32 -5 37 -4 34 12 -2 10 -17 22 -32 26 -38 10
-55 26 -77 68 -17 35 -13 81 7 81 4 0 23 14 42 32 42 39 113 88 177 122 59 31
84 50 84 63 0 6 9 13 19 16 18 4 61 73 61 97 0 23 -28 7 -46 -27z"/>
<path d="M1090 765 c0 -8 21 -109 32 -155 15 -65 69 -210 78 -210 4 0 11 -11
14 -25 4 -14 13 -25 21 -25 18 0 20 24 2 42 -20 21 -74 175 -92 263 -21 107
-24 115 -41 115 -8 0 -14 -2 -14 -5z"/>
<path d="M1310 735 c0 -8 7 -15 15 -15 8 0 15 7 15 15 0 8 -7 15 -15 15 -8 0
-15 -7 -15 -15z"/>
<path d="M1240 325 c0 -8 7 -15 15 -15 8 0 15 7 15 15 0 8 -7 15 -15 15 -8 0
-15 -7 -15 -15z"/>
<path d="M1876 184 c-11 -28 -6 -54 9 -54 8 0 15 6 15 13 0 6 3 22 6 35 7 26
-20 32 -30 6z"/>
</g>
</svg>
